<svg width="82" height="69" viewBox="0 0 82 69" fill="none" xmlns="http://www.w3.org/2000/svg">
<g id="Group">
<path id="Vector" d="M78.5094 27.0859C78.4264 26.6706 78.1772 26.1721 77.6372 25.9229L75.9758 25.466C75.3943 25.2999 74.7712 25.2999 74.2313 25.5491C73.9405 25.6737 73.6498 25.7568 73.276 25.6737C71.8222 25.4245 70.0777 24.5938 68.4994 23.6385C71.0746 24.6769 73.4006 24.22 74.3559 23.9292C74.5636 23.8877 74.7712 23.7631 74.8959 23.5969C75.1035 23.3477 75.4358 23.057 75.8512 23.0154C76.225 22.9739 76.848 23.0154 77.3049 23.057C77.5126 23.057 77.7203 23.0154 77.8449 22.8493C78.011 22.7247 78.0941 22.517 78.0526 22.2678C78.011 21.894 78.011 21.6863 77.7618 21.5202C77.3049 21.1048 75.9758 20.7725 75.062 20.9802C75.0205 20.9802 74.9374 21.0217 74.8543 21.0633C74.5636 21.1879 73.9821 21.3955 73.4837 21.3125C72.5283 21.1879 71.3238 20.8141 68.084 19.2772C64.3874 17.5327 61.6045 14.1268 61.7291 13.753C62.186 13.3792 63.5982 13.3377 64.512 13.3377C65.3427 13.3377 65.5504 13.2961 65.5504 13.1715C65.5504 13.13 65.5504 13.13 65.5504 13.13C66.2565 12.7146 66.5888 12.2993 66.6303 11.7593C66.7134 11.6347 66.7549 11.427 66.7134 11.1778C66.6718 11.0117 66.6303 10.8455 66.5888 10.5963C66.5888 10.5133 66.5472 10.4302 66.4641 10.3471C66.298 10.0148 65.9242 9.26719 65.6334 7.39809C65.9242 5.36285 65.135 3.203 63.6397 1.7908V2.08155L63.5982 2.78765C62.1445 1.45851 60.1923 0.877016 58.2401 0.793945H57.9078C57.9909 0.835481 58.1155 0.960088 58.2401 1.08469C56.8279 0.835481 55.3742 1.50005 54.2112 2.20615C54.2942 2.20615 54.585 2.24769 54.8342 2.28922C54.2942 2.45537 53.7958 2.70458 53.2974 3.03686C52.7159 3.45222 52.3421 4.07525 51.9267 4.69828L51.8021 4.86442L52.0098 4.78135L52.5498 4.61521C51.9683 5.23824 51.4698 5.94435 51.0545 6.69199C50.6807 7.56423 50.7222 8.51955 50.8053 9.47486C50.7637 9.5164 50.3899 9.68254 50.3899 9.68254C50.3068 9.76561 50.1822 9.84868 50.1407 9.97329C49.7669 9.93175 49.4346 9.89022 49.0608 9.84868C45.198 9.39179 41.9997 9.14258 39.0092 9.14258C37.8047 9.14258 36.6832 9.18411 35.5202 9.26719C33.8588 9.22565 32.0728 9.35026 30.0375 9.72408C29.0822 9.72408 28.21 9.84868 27.3377 10.0148C14.4202 12.59 -1.32177 25.1337 0.671929 39.5881C1.04575 42.2879 2.0426 44.8631 3.3302 47.106C4.65934 49.3489 6.27922 51.3011 8.06525 53.0456C8.72982 53.7102 9.7682 53.7517 10.5158 53.1702C11.3465 52.5056 11.4712 51.3426 10.8066 50.5119C6.77765 45.6107 4.16091 39.3804 6.56997 33.1916C8.89596 27.2521 14.0879 22.8908 19.6121 19.7341C21.5227 18.6542 23.5165 17.7404 25.5102 17.0343C25.5102 17.0343 25.5517 17.0343 25.5932 17.0343C25.5932 17.0759 25.5932 17.1589 25.5932 17.2005C25.5932 17.4912 25.5932 17.8235 25.5932 18.1142C25.5932 19.3188 25.6763 20.5233 25.8424 21.7278C25.9255 22.4339 26.0501 23.0985 26.2163 23.7631V24.0954C24.8456 26.3383 23.018 28.0412 20.692 29.2458C20.5674 29.3288 20.4428 29.4119 20.2767 29.495C19.9859 29.6611 19.6952 29.8688 19.3214 29.9934C18.7399 30.2011 18.1584 30.3672 17.8676 30.7826L17.7845 30.9072L17.8261 31.0318C18.1168 32.6101 18.0753 35.3515 18.0338 36.8052C18.0338 37.2206 18.0338 37.5529 18.0338 37.6775C17.9507 38.4251 17.6599 39.1312 17.12 39.9619L16.9954 43.4094V43.7416L17.4523 43.534C17.5353 43.4924 17.6599 43.4509 17.743 43.4094C18.5737 42.9525 19.1552 42.1218 19.4875 41.4572C20.9828 39.9204 21.1905 34.8946 21.1905 34.1885C26.7978 32.5686 30.4944 29.2042 32.0312 27.5428L31.9066 27.7505L32.4466 27.169C32.5297 27.0859 32.6127 27.0028 32.6958 26.8782C32.8619 26.7121 32.9865 26.5459 33.1111 26.3383C33.485 26.0475 33.7757 25.5906 33.9003 25.2168C33.9419 25.1753 33.9419 25.1337 33.9834 25.0922L34.0249 25.6322C34.4818 24.7599 34.8141 23.7631 35.0633 22.8078C35.3956 21.8524 35.6033 20.8141 35.7279 19.6926V19.2357C35.8525 19.3188 35.9771 19.4018 36.1017 19.5265C36.434 19.7757 36.7663 20.0249 36.8909 20.1079C39.2999 21.6032 44.658 23.3477 52.0098 23.5139L51.6775 24.0538C53.962 24.0954 55.0834 23.7215 55.748 23.4308C55.7895 23.4308 55.8726 23.4308 55.9141 23.4308L55.4988 24.1369C57.0771 23.9292 58.7386 23.5139 59.4862 22.9324H59.5277C59.6939 23.0985 60.3169 23.7215 60.6076 23.9292C63.889 26.4629 67.3779 28.7058 74.0236 28.2904C74.1067 28.2904 74.2313 28.2904 74.3559 28.2489C74.4805 28.2074 74.5636 28.1658 74.6882 28.1243C74.8128 28.0412 74.9789 27.9582 75.1035 27.8751C75.3943 27.6674 75.7266 27.4597 75.9758 27.5013C76.6403 27.5428 77.3464 27.6259 78.0941 27.792C78.2602 27.8335 78.4264 27.7505 78.5094 27.6674C78.5094 27.3767 78.551 27.2521 78.5094 27.0859ZM21.0243 33.9808H20.9828V34.0639C20.9828 34.1054 20.8582 37.9682 19.9859 40.1696C20.0275 40.0865 20.0275 40.0034 20.069 39.8788V39.8373C20.069 39.7542 20.1105 39.6712 20.1105 39.6296L20.4844 33.6485C23.7657 32.7763 24.8456 32.1532 26.1747 31.4056C26.8393 31.0318 27.5454 30.6164 28.6253 30.118C28.833 29.9934 29.0407 29.8688 29.2068 29.7026C29.2899 29.6611 29.3314 29.6196 29.4145 29.578C29.5806 29.4534 29.7468 29.3704 29.9129 29.2458C29.9544 29.2042 29.996 29.2042 30.0375 29.1627C28.0438 30.8241 25.0117 32.8593 21.0243 33.9808ZM32.1143 27.0859C32.0728 27.1274 31.9897 27.2105 31.9482 27.2521C31.8651 27.3351 31.7405 27.4182 31.6574 27.5428C31.5743 27.5843 31.5328 27.6674 31.4497 27.7089C31.3667 27.792 31.242 27.8751 31.159 27.9582C31.0759 27.9997 31.0344 28.0828 30.9513 28.1243C30.8682 28.2074 30.7852 28.2904 30.6606 28.332C30.5775 28.3735 30.5359 28.4566 30.4529 28.4981C30.3698 28.5812 30.2867 28.6227 30.1621 28.7058C30.0791 28.7473 29.996 28.8304 29.9545 28.8719C29.8714 28.955 29.7883 28.9965 29.7052 29.0381C29.6222 29.0796 29.5391 29.1627 29.456 29.2042C29.373 29.2458 29.2899 29.2873 29.2483 29.3704C28.9991 29.5365 28.7499 29.7026 28.5007 29.8688C27.4208 30.3672 26.6731 30.7826 26.0501 31.1564C24.721 31.904 23.6826 32.5271 20.3598 33.3993H20.3182L19.9444 39.505C19.9444 39.5466 19.9444 39.5881 19.9029 39.6296C19.9029 39.7127 19.8613 39.8373 19.8198 39.9204C19.8198 39.9619 19.7783 40.0034 19.7783 40.045C19.6952 40.2942 19.5706 40.5849 19.4044 40.9172C19.3629 41.0003 19.3214 41.0834 19.2798 41.1664C18.906 41.8725 18.283 42.7448 17.3277 43.1601L17.2861 43.2017L17.12 43.2432V43.2017L17.2446 39.7958C17.8261 38.9651 18.1168 38.2174 18.1999 37.4282C18.1999 37.2621 18.1999 36.9714 18.1999 36.556C18.2414 35.1023 18.283 32.3609 17.9922 30.741V30.658L18.0338 30.6164C18.3245 30.2426 18.8645 30.0765 19.4044 29.9103C19.7783 29.7857 20.1105 29.578 20.4013 29.4119C20.5259 29.3288 20.6505 29.2458 20.7751 29.2042C23.1426 27.9582 24.9702 26.2967 26.3409 24.0123C26.5901 24.22 27.2962 24.843 27.9607 25.0922L27.0885 25.2999L27.3793 25.4245C28.1684 25.7152 28.8745 25.8398 29.5391 25.7983L29.7883 26.7536L29.8298 26.8367H29.9129C30.4529 26.7536 30.8267 26.7121 31.2421 26.5875C31.5743 26.4629 31.8651 26.3383 32.1974 26.0891L31.9897 26.7952H32.0728C32.1558 26.7952 32.2804 26.7952 32.405 26.7536C32.322 26.8782 32.2389 26.9613 32.1143 27.0859ZM58.074 14.1268C58.0324 14.1684 57.9909 14.2099 57.9494 14.2514C55.748 13.8361 54.6265 12.1331 54.3773 11.2609C54.3358 11.0532 53.962 13.5869 53.962 13.5869C52.799 13.4623 52.0098 11.1778 52.2175 10.804C51.9683 11.0117 51.8021 11.5101 51.5944 11.967C51.5944 11.967 51.5944 11.9255 51.5529 11.9255C51.3452 11.5516 51.2206 11.1778 51.1376 10.804C51.1376 10.7625 51.1375 10.7625 51.096 10.7209C50.9714 10.5963 50.6391 10.3471 50.5561 10.181C50.5561 10.1394 50.5561 10.0979 50.5976 10.0979C50.473 10.0979 50.3068 10.0564 50.1822 10.0564C50.1822 10.0148 50.2238 10.0148 50.2238 9.97329C50.2653 9.89022 50.3899 9.80715 50.4314 9.76561L50.8883 9.55793H50.9299C50.8883 9.10104 50.8468 8.60262 50.8883 8.10419C50.8883 6.65045 51.9267 5.52899 52.8405 4.4906L53.0482 4.28293C52.882 4.32446 52.4667 4.4906 52.1759 4.57368C52.5498 4.07525 52.882 3.53529 53.3805 3.16147C54.0866 2.66304 54.9588 2.41383 55.7895 2.20615C55.5403 2.16462 55.125 2.12308 54.7511 2.08155C55.9141 1.45851 57.2848 0.960088 58.5724 1.37544L59.1124 1.54158C58.9878 1.41698 58.7385 1.2093 58.5309 1.04316C60.483 1.16776 62.4352 1.87387 63.8059 3.36915C63.8059 3.24454 63.8474 2.74611 63.8474 2.41383C64.9689 3.74297 65.4673 5.48746 65.3427 7.19041C65.3427 7.27348 65.3427 7.31502 65.3427 7.39809C65.3427 7.48116 65.3012 7.56423 65.3012 7.6473C65.0104 7.77191 64.512 7.85498 63.8059 7.73037C63.6813 7.68884 63.5567 7.6473 63.3905 7.60577C63.2659 7.56423 63.1413 7.52269 63.0167 7.43962C62.9336 6.56738 62.1029 6.27663 60.483 6.77506C60.4415 6.77506 60.4 6.77506 60.3584 6.81659C59.4031 7.14887 58.5724 7.81344 57.9909 8.64415C57.9494 8.72722 57.8663 8.81029 57.8248 8.89337C57.7417 9.01797 57.7002 9.10104 57.6586 9.22565C57.3679 9.84868 57.1602 10.5132 57.1602 11.1778C57.2433 12.7146 57.8248 13.7115 58.074 14.1268ZM78.2602 27.3767C78.2187 27.4182 78.1356 27.4597 78.0526 27.4597H78.011C77.2634 27.3351 76.5157 27.2521 75.8512 27.169C75.5189 27.1274 75.1866 27.3767 74.8543 27.5843C74.7297 27.6674 74.5636 27.7505 74.439 27.8335C74.3559 27.8751 74.2728 27.9166 74.1482 27.9582C74.0651 27.9997 73.9405 27.9997 73.8575 27.9997C67.2949 28.415 63.8059 26.2137 60.5661 23.68C60.2338 23.4308 59.4862 22.6416 59.4862 22.6416L59.4447 22.6001H59.4031C59.1539 22.3093 58.4063 21.3955 58.2817 19.6926L58.9878 20.731C58.9878 20.731 58.5724 18.6127 58.6555 17.782C58.6555 17.782 58.6555 17.782 58.6555 17.7404C58.8216 16.1621 59.6939 15.2068 60.5661 14.376C60.8569 14.0853 61.1891 13.8776 61.5214 13.7115V13.753C61.6045 14.4591 64.3458 17.6989 67.9594 19.4434C71.2407 20.9802 72.4453 21.354 73.4421 21.4786C73.9821 21.5617 74.6051 21.354 74.8959 21.2294C74.9789 21.1879 75.0205 21.1879 75.062 21.1879C75.9342 21.0217 77.1388 21.3125 77.5957 21.6863C77.7618 21.8109 77.7618 21.9355 77.8033 22.3093C77.8033 22.4755 77.7618 22.6001 77.6372 22.7247C77.5126 22.8493 77.388 22.8908 77.2634 22.8493C76.8065 22.8078 76.1835 22.7662 75.7681 22.8078C75.3112 22.8493 74.9374 23.1816 74.6882 23.4308C74.5636 23.5554 74.3974 23.68 74.2728 23.7215C73.4006 23.9707 70.41 24.5938 67.4195 22.8908C65.675 21.894 63.8474 19.8587 63.4736 19.4434L63.3075 19.568C63.5151 19.8587 64.8443 21.2294 65.0519 21.3955C66.6303 22.8908 70.4516 25.2999 73.1514 25.8398C73.5252 25.9229 73.899 25.7983 74.1898 25.6737C74.6882 25.466 75.2281 25.466 75.8096 25.6322L77.4711 26.0891C77.9279 26.2967 78.1356 26.7536 78.2187 27.0859C78.3433 27.2105 78.3433 27.2936 78.2602 27.3767Z" fill="#1E4551"/>
<path id="Vector_2" d="M29.9959 29.1626C28.0437 30.824 25.0116 32.8593 21.0242 34.0223H20.9827V34.1053C20.9827 34.1469 20.8581 38.0097 19.9858 40.211C20.0274 40.128 20.0274 40.0449 20.0689 39.9203V39.8788C20.0689 39.7957 20.1104 39.7126 20.1104 39.6711L20.4843 33.69C23.7656 32.8177 24.8455 32.1947 26.1746 31.447C26.8392 31.0732 27.5453 30.6579 28.6252 30.1595C28.8329 30.0348 29.0406 29.9102 29.2067 29.7441C29.2898 29.7026 29.3313 29.661 29.4144 29.6195C29.5805 29.4949 29.7467 29.4118 29.9128 29.2872C29.9128 29.2041 29.9544 29.1626 29.9959 29.1626Z" fill="white"/>
<path id="Vector_3" d="M32.4051 26.7951C32.322 26.8782 32.239 27.0028 32.1559 27.0858C32.1144 27.1274 32.0313 27.2104 31.9898 27.252C31.9067 27.335 31.7821 27.4181 31.699 27.5427C31.6159 27.5843 31.5744 27.6673 31.4913 27.7089C31.4083 27.7919 31.2837 27.875 31.2006 27.9581C31.1175 27.9996 31.076 28.0827 30.9929 28.1242C30.9098 28.2073 30.8268 28.2904 30.7022 28.3319C30.6191 28.3734 30.5776 28.4565 30.4945 28.498C30.4114 28.5811 30.3283 28.6226 30.2037 28.7057C30.1207 28.7473 30.0376 28.8303 29.9961 28.8719C29.913 28.9549 29.8299 28.9965 29.7468 29.038C29.6638 29.0795 29.5807 29.1626 29.4976 29.2041C29.4146 29.2457 29.3315 29.2872 29.2899 29.3703C29.0407 29.5364 28.7915 29.7026 28.5423 29.8687C27.4624 30.3671 26.7148 30.7825 26.0917 31.1563C24.7626 31.904 23.7242 32.527 20.4014 33.3992H20.3598L19.986 39.5049C19.986 39.5465 19.986 39.588 19.9445 39.6296C19.9445 39.7126 19.9029 39.8372 19.8614 39.9203C19.8614 39.9618 19.8199 40.0034 19.8199 40.0449C19.7368 40.2941 19.6122 40.5849 19.446 40.9172C19.4045 41.0002 19.363 41.0833 19.3214 41.1664C18.9476 41.8725 18.3246 42.7447 17.3693 43.1601L17.3277 43.2016H17.2031L17.3277 39.7957C17.9092 38.965 18.2 38.2173 18.283 37.4282C18.283 37.262 18.283 36.9713 18.283 36.5559C18.3246 35.1022 18.3661 32.3608 18.0754 30.741V30.6579L18.1169 30.6164C18.4077 30.2425 18.9476 30.0764 19.4876 29.9102C19.8614 29.7856 20.1937 29.578 20.4844 29.4118C20.609 29.3287 20.7336 29.2457 20.8582 29.2041C23.2258 27.9581 25.0533 26.2967 26.424 24.0122C26.6732 24.2199 27.3793 24.8429 28.0439 25.0921L27.1716 25.2998L27.4624 25.4244C28.2516 25.7152 28.9577 25.8398 29.6222 25.7982L29.8714 26.7536L29.913 26.8366H29.9961C30.536 26.7536 30.9098 26.712 31.3252 26.5874C31.6575 26.4628 31.9482 26.3382 32.2805 26.089L32.0728 26.7951H32.1559C32.1559 26.8366 32.2805 26.8366 32.4051 26.7951Z" fill="white"/>
<path id="Vector_4" d="M65.3842 7.14865C65.3842 7.23172 65.3842 7.27326 65.3842 7.35633C65.3842 7.4394 65.3426 7.52247 65.3426 7.60555C65.0519 7.73015 64.5535 7.81322 63.8474 7.68862C63.7228 7.64708 63.5982 7.60554 63.432 7.56401C63.3074 7.52247 63.1828 7.48094 63.0582 7.39787C62.9751 6.52562 62.1444 6.23487 60.5245 6.7333C60.483 6.7333 60.4415 6.7333 60.3999 6.77484C59.4446 7.10712 58.6139 7.77169 58.0324 8.6024C57.9909 8.68547 57.9078 8.76854 57.8663 8.85161C57.7832 8.97622 57.7417 9.05929 57.7001 9.18389C57.4094 9.80693 57.2017 10.4715 57.2017 11.1361C57.2017 12.7559 57.7417 13.7113 57.9909 14.1682C57.9493 14.2097 57.9078 14.2512 57.8663 14.2928C55.6649 13.8774 54.5434 12.1744 54.2942 11.3022C54.2527 11.0945 53.8789 13.6282 53.8789 13.6282C52.7159 13.5036 51.9267 11.2191 52.1344 10.8453C51.8851 11.053 51.719 11.5514 51.5113 12.0083C51.5113 12.0083 51.5113 11.9668 51.4698 11.9668C51.2621 11.593 51.1375 11.2191 51.0544 10.8453C51.0544 10.8038 51.0544 10.8038 51.0129 10.7622C50.8883 10.6376 50.556 10.3884 50.4729 10.2223C50.4729 10.1807 50.4729 10.1392 50.5145 10.1392C50.3899 10.1392 50.2237 10.0977 50.0991 10.0977C50.0991 10.0561 50.1407 10.0561 50.1407 10.0146C50.1822 9.93153 50.3068 9.84846 50.3483 9.80693L50.8052 9.59925H50.8468C50.8052 9.14236 50.7637 8.64393 50.8052 8.14551C50.8052 6.69176 51.8436 5.57031 52.7574 4.53192L52.9651 4.32424C52.7989 4.36578 52.3836 4.53192 52.0928 4.61499C52.4666 4.11656 52.7989 3.5766 53.2974 3.20278C54.0035 2.70436 54.8757 2.45514 55.7064 2.24747C55.4572 2.20593 55.0418 2.1644 54.668 2.12286C55.831 1.49983 57.2017 1.0014 58.4893 1.41676L59.0293 1.5829C58.9046 1.45829 58.6554 1.25061 58.4478 1.08447C60.3999 1.20908 62.3521 1.91518 63.7228 3.41046C63.7228 3.28585 63.7643 2.78743 63.7643 2.45514C65.0519 3.70121 65.5503 5.4457 65.3842 7.14865Z" fill="white"/>
<path id="Vector_5" d="M78.3434 27.1274C78.3434 27.2105 78.3434 27.2935 78.2603 27.3766C78.2188 27.4181 78.1357 27.4597 78.0526 27.4597H78.0111C77.2635 27.3351 76.5158 27.252 75.8513 27.1689C75.519 27.1274 75.1867 27.3766 74.8544 27.5843C74.7298 27.6674 74.5637 27.7504 74.4391 27.8335C74.356 27.875 74.2729 27.9166 74.1483 27.9581C74.0652 27.9996 73.9406 27.9996 73.8575 27.9996C67.2949 28.415 63.806 26.2136 60.5662 23.6799C60.2339 23.4307 59.4863 22.6416 59.4863 22.6416L59.4447 22.6H59.4032C59.154 22.3093 58.4063 21.3955 58.2817 19.6925L58.9878 20.7309C58.9878 20.7309 58.5725 18.6126 58.6556 17.7819C58.6556 17.7819 58.6556 17.7819 58.6556 17.7404C58.8217 16.162 59.6939 15.2067 60.5662 14.376C60.8569 14.0852 61.1892 13.8776 61.5215 13.7114V13.753C61.6046 14.4591 64.3459 17.6988 67.9595 19.4433C71.2408 20.9801 72.4453 21.354 73.4422 21.4786C73.9822 21.5616 74.6052 21.354 74.8959 21.2293C74.979 21.1878 75.0205 21.1878 75.0621 21.1878C75.9343 21.0217 77.1389 21.3124 77.5957 21.6862C77.7619 21.8108 77.7619 21.9355 77.8034 22.3093C77.8034 22.4754 77.7619 22.6 77.6373 22.7246C77.5127 22.8492 77.3881 22.8908 77.2635 22.8492C76.8066 22.8077 76.1835 22.7662 75.7682 22.8077C75.3113 22.8492 74.9375 23.1815 74.6883 23.4307C74.5637 23.5553 74.3975 23.6799 74.2729 23.7215C73.4007 23.9707 70.4101 24.5937 67.4195 22.8908C65.6751 21.8939 63.8475 19.8587 63.4737 19.4433L63.3075 19.5679C63.5152 19.8587 64.8443 21.2294 65.052 21.3955C66.6304 22.8908 70.4516 25.2998 73.1514 25.8398C73.5253 25.9229 73.8991 25.7983 74.1898 25.6736C74.6883 25.466 75.2282 25.466 75.8097 25.6321L77.4711 26.089C78.0526 26.2967 78.2188 26.7536 78.3434 27.1274Z" fill="white"/>
<g id="Group_2">
<path id="Vector_6" d="M25.7178 64.011C25.7178 61.6019 27.5453 59.8574 30.0375 59.8574C31.2835 59.8574 32.405 60.2728 33.1526 61.145L32.405 61.8927C31.782 61.2281 30.9928 60.9373 30.1205 60.9373C28.293 60.9373 26.9223 62.2665 26.9223 64.0525C26.9223 65.8385 28.293 67.1677 30.1205 67.1677C31.0343 67.1677 31.782 66.8354 32.405 66.1708L33.1526 66.9185C32.405 67.7492 31.3251 68.2061 30.0375 68.2061C27.5453 68.2061 25.7178 66.42 25.7178 64.011Z" fill="#1E4551"/>
<path id="Vector_7" d="M33.8174 65.0078C33.8174 63.1802 35.1881 61.8511 37.0156 61.8511C38.8847 61.8511 40.2138 63.1387 40.2138 65.0078C40.2138 66.8353 38.8432 68.1645 37.0156 68.1645C35.1465 68.1645 33.8174 66.8353 33.8174 65.0078ZM39.0924 65.0078C39.0924 63.6786 38.2201 62.8479 37.0156 62.8479C35.8111 62.8479 34.9388 63.6786 34.9388 65.0078C34.9388 66.3369 35.8526 67.1676 37.0156 67.1676C38.1786 67.1676 39.0924 66.3369 39.0924 65.0078Z" fill="#1E4551"/>
<path id="Vector_8" d="M41.7505 59.4419H42.872V68.0813H41.7505V59.4419Z" fill="#1E4551"/>
<path id="Vector_9" d="M44.4502 65.0078C44.4502 63.1802 45.8209 61.8511 47.6484 61.8511C49.5175 61.8511 50.8467 63.1387 50.8467 65.0078C50.8467 66.8353 49.476 68.1645 47.6484 68.1645C45.8209 68.1645 44.4502 66.8353 44.4502 65.0078ZM49.7252 65.0078C49.7252 63.6786 48.853 62.8479 47.6484 62.8479C46.4439 62.8479 45.5717 63.6786 45.5717 65.0078C45.5717 66.3369 46.4854 67.1676 47.6484 67.1676C48.8114 67.1676 49.7252 66.3369 49.7252 65.0078Z" fill="#1E4551"/>
<path id="Vector_10" d="M62.6431 64.5509V68.1229H61.5216V64.717C61.5216 63.5125 60.9401 62.931 59.9432 62.931C58.8218 62.931 58.0742 63.6371 58.0742 64.9662V68.1645H56.9527V64.7585C56.9527 63.554 56.3712 62.9725 55.3743 62.9725C54.2529 62.9725 53.5052 63.6786 53.5052 65.0078V68.206H52.3838V62.0172H53.4637V62.931C53.9206 62.3079 54.6682 61.9341 55.582 61.9341C56.5373 61.9341 57.3265 62.3079 57.7419 63.0556C58.1988 62.3495 59.071 61.9341 60.1094 61.9341C61.6462 61.8511 62.6431 62.7233 62.6431 64.5509Z" fill="#1E4551"/>
<path id="Vector_11" d="M71.1162 65.0076C71.1162 66.8767 69.7871 68.1643 68.001 68.1643C67.0873 68.1643 66.2981 67.832 65.7997 67.1259V68.1228H64.7197V59.4834H65.8412V62.8893C66.3396 62.2247 67.1288 61.8925 68.001 61.8925C69.7871 61.8509 71.1162 63.1385 71.1162 65.0076ZM69.9947 65.0076C69.9947 63.6785 69.081 62.8478 67.918 62.8478C66.755 62.8478 65.8412 63.6785 65.8412 65.0076C65.8412 66.3367 66.755 67.1675 67.918 67.1675C69.081 67.1675 69.9947 66.3367 69.9947 65.0076Z" fill="#1E4551"/>
<path id="Vector_12" d="M72.4453 60.0235C72.4453 59.6082 72.7776 59.2759 73.193 59.2759C73.6083 59.2759 73.9406 59.6082 73.9406 59.982C73.9406 60.3973 73.6083 60.7296 73.193 60.7296C72.7776 60.7296 72.4453 60.4389 72.4453 60.0235ZM72.653 61.9341H73.7744V68.1229H72.653V61.9341Z" fill="#1E4551"/>
<path id="Vector_13" d="M80.7937 64.3847V68.1229H79.7137V67.2922C79.3399 67.8322 78.6338 68.1645 77.6785 68.1645C76.2663 68.1645 75.394 67.4168 75.394 66.3369C75.394 65.34 76.0171 64.5509 77.8862 64.5509H79.6722V64.3432C79.6722 63.3879 79.1322 62.8479 78.0108 62.8479C77.2631 62.8479 76.5155 63.0971 76.0586 63.5125L75.6017 62.6818C76.2248 62.1833 77.1801 61.8926 78.1354 61.8926C79.8383 61.8511 80.7937 62.6818 80.7937 64.3847ZM79.6722 66.2123V65.34H77.9692C76.8478 65.34 76.557 65.7554 76.557 66.2954C76.557 66.9184 77.0555 67.2922 77.9277 67.2922C78.7169 67.2922 79.3815 66.9184 79.6722 66.2123Z" fill="#1E4551"/>
</g>
<g id="Group_3">
<path id="Vector_14" d="M23.807 35.6838V38.4252H27.7529V39.3805H23.807V42.5787H22.6855V34.7285H28.2513V35.7254H23.807V35.6838Z" fill="#1E4551"/>
<path id="Vector_15" d="M35.0219 36.5977V42.5373H33.9835V41.6235C33.5266 42.2465 32.8205 42.5788 31.9482 42.5788C30.4114 42.5788 29.373 41.7481 29.373 40.0036V36.5977H30.453V39.879C30.453 41.042 31.0345 41.6235 32.0729 41.6235C33.1943 41.6235 33.9004 40.9174 33.9004 39.6298V36.5562H35.0219V36.5977Z" fill="#1E4551"/>
<path id="Vector_16" d="M42.706 39.1313V42.5373H41.626V39.2559C41.626 38.093 41.0445 37.5115 40.0061 37.5115C38.8432 37.5115 38.137 38.176 38.137 39.5052V42.5788H37.0571V36.6392H38.0955V37.553C38.5524 36.93 39.3 36.5977 40.2554 36.5977C41.7091 36.5561 42.706 37.3868 42.706 39.1313Z" fill="#1E4551"/>
<path id="Vector_17" d="M50.3899 34.2305V42.5791H49.3515V41.6238C48.8531 42.2884 48.1055 42.6206 47.2332 42.6206C45.4887 42.6206 44.2427 41.4161 44.2427 39.5885C44.2427 37.761 45.5303 36.5565 47.2332 36.5565C48.0639 36.5565 48.8116 36.8887 49.31 37.5118V34.2305H50.3899ZM49.31 39.5885C49.31 38.3009 48.4378 37.5118 47.3163 37.5118C46.1533 37.5118 45.3226 38.3425 45.3226 39.5885C45.3226 40.8761 46.1948 41.7069 47.3163 41.7069C48.4378 41.6653 49.31 40.8346 49.31 39.5885Z" fill="#1E4551"/>
<path id="Vector_18" d="M57.1187 38.9653V42.5789H56.1218V41.7897C55.748 42.3296 55.0834 42.6619 54.1696 42.6619C52.8405 42.6619 51.9683 41.9558 51.9683 40.9174C51.9683 39.9621 52.5913 39.1729 54.3773 39.1729H56.0803V38.9653C56.0803 38.0515 55.5403 37.5115 54.5019 37.5115C53.7958 37.5115 53.0897 37.7607 52.6328 38.1346L52.1759 37.3454C52.799 36.847 53.6712 36.5977 54.6265 36.5977C56.2049 36.5562 57.1187 37.3454 57.1187 38.9653ZM56.0387 40.7513V39.9206H54.3773C53.2974 39.9206 53.0066 40.3359 53.0066 40.8344C53.0066 41.4159 53.5051 41.7897 54.3358 41.7897C55.1665 41.7897 55.7895 41.4159 56.0387 40.7513Z" fill="#1E4551"/>
<path id="Vector_19" d="M58.6138 39.5882C58.6138 37.8022 59.9429 36.5562 61.7705 36.5562C62.8504 36.5562 63.7226 37.013 64.1795 37.8438L63.3488 38.3837C62.975 37.8022 62.3935 37.5115 61.7289 37.5115C60.5659 37.5115 59.6937 38.3422 59.6937 39.5882C59.6937 40.8758 60.5659 41.7066 61.7289 41.7066C62.3935 41.7066 62.975 41.4573 63.3488 40.8343L64.1795 41.3327C63.7226 42.1634 62.8089 42.6203 61.7705 42.6203C59.9429 42.6203 58.6138 41.3743 58.6138 39.5882Z" fill="#1E4551"/>
<path id="Vector_20" d="M65.3843 34.7701C65.3843 34.3962 65.7166 34.064 66.1319 34.064C66.5473 34.064 66.8796 34.3547 66.8796 34.7285C66.8796 35.1439 66.5888 35.4346 66.1319 35.4346C65.7166 35.4762 65.3843 35.1439 65.3843 34.7701ZM65.592 36.5976H66.6719V42.5372H65.592V36.5976Z" fill="#1E4551"/>
<path id="Vector_21" d="M68.167 39.5885C68.167 37.8025 69.4961 36.5564 71.2822 36.5564C73.0682 36.5564 74.3558 37.8025 74.3558 39.5885C74.3558 41.3745 73.0682 42.6206 71.2822 42.6206C69.4961 42.6206 68.167 41.3745 68.167 39.5885ZM73.2759 39.5885C73.2759 38.3009 72.4036 37.5117 71.2822 37.5117C70.1192 37.5117 69.2884 38.3424 69.2884 39.5885C69.2884 40.8761 70.1607 41.7068 71.2822 41.7068C72.4036 41.6653 73.2759 40.8346 73.2759 39.5885ZM71.9467 34.272H73.3174L71.4483 35.7257H70.4514L71.9467 34.272Z" fill="#1E4551"/>
<path id="Vector_22" d="M81.4999 39.1313V42.5373H80.42V39.2559C80.42 38.093 79.8385 37.5115 78.8001 37.5115C77.6371 37.5115 76.931 38.176 76.931 39.5052V42.5788H75.8511V36.6392H76.8895V37.553C77.3464 36.93 78.094 36.5977 79.0493 36.5977C80.4615 36.5561 81.4999 37.3868 81.4999 39.1313Z" fill="#1E4551"/>
</g>
<g id="Group_4">
<path id="Vector_23" d="M27.504 43.3677V56.7421H24.9703L18.2831 48.6012V56.7421H15.2095V43.3262H17.7847L24.4304 51.4671V43.3262H27.504V43.3677Z" fill="#1E4551"/>
<path id="Vector_24" d="M39.5494 50.8853V56.7418H36.7666V55.4542C36.2266 56.4095 35.1467 56.908 33.6099 56.908C31.2008 56.908 29.7471 55.5788 29.7471 53.7928C29.7471 51.9652 31.0347 50.7192 34.1498 50.7192H36.5174C36.5174 49.4316 35.7697 48.6839 34.1498 48.6839C33.0699 48.6839 31.9485 49.0577 31.2008 49.6392L30.1209 47.5625C31.2423 46.7733 32.9038 46.3164 34.5652 46.3164C37.7634 46.3164 39.5494 47.7701 39.5494 50.8853ZM36.5589 53.502V52.4637H34.5237C33.1114 52.4637 32.6961 52.9621 32.6961 53.6682C32.6961 54.4158 33.3191 54.9143 34.399 54.9143C35.3544 54.9143 36.2266 54.4574 36.5589 53.502Z" fill="#1E4551"/>
<path id="Vector_25" d="M48.8952 56.2435C48.2721 56.7004 47.3999 56.9081 46.4446 56.9081C43.994 56.9081 42.5818 55.662 42.5818 53.2114V48.9748H41.0034V46.6904H42.5818V44.1982H45.5723V46.6904H48.1475V48.9748H45.5723V53.1699C45.5723 54.0422 46.0707 54.5406 46.8599 54.5406C47.3168 54.5406 47.7322 54.416 48.0645 54.1668L48.8952 56.2435Z" fill="#1E4551"/>
<path id="Vector_26" d="M60.9816 46.4414V56.7422H58.1571V55.5377C57.368 56.4515 56.205 56.9083 54.9589 56.9083C52.3837 56.9083 50.5562 55.4546 50.5562 52.2564V46.4414H53.5467V51.841C53.5467 53.544 54.2943 54.3331 55.6235 54.3331C56.9942 54.3331 57.991 53.4609 57.991 51.5503V46.4414H60.9816Z" fill="#1E4551"/>
<path id="Vector_27" d="M70.1196 46.3164V49.0578C69.8704 49.0578 69.6627 49.0162 69.455 49.0162C67.7936 49.0162 66.7137 49.93 66.7137 51.8822V56.7418H63.7231V46.441H66.5891V47.8117C67.3367 46.8148 68.5413 46.3164 70.1196 46.3164Z" fill="#1E4551"/>
<path id="Vector_28" d="M80.9601 50.8853V56.7418H78.1772V55.4542C77.6373 56.4095 76.5573 56.908 75.0205 56.908C72.6115 56.908 71.1577 55.5788 71.1577 53.7928C71.1577 51.9652 72.4453 50.7192 75.5605 50.7192H77.928C77.928 49.4316 77.1804 48.6839 75.5605 48.6839C74.4806 48.6839 73.3591 49.0577 72.6115 49.6392L71.5315 47.5625C72.653 46.7733 74.3144 46.3164 75.9758 46.3164C79.1325 46.3164 80.9601 47.7701 80.9601 50.8853ZM77.9695 53.502V52.4637H75.9343C74.5221 52.4637 74.1067 52.9621 74.1067 53.6682C74.1067 54.4158 74.7298 54.9143 75.8097 54.9143C76.765 54.9143 77.6373 54.4574 77.9695 53.502Z" fill="#1E4551"/>
</g>
</g>
</svg>
