<svg width="70" height="71" viewBox="0 0 70 71" fill="none" xmlns="http://www.w3.org/2000/svg">
<rect width="70" height="71" fill="#747474"/>
<g id="Initial-2-animation" clip-path="url(#clip0_530_6541)">
<rect width="500" height="980" transform="translate(-215 -400)" fill="#4BC5BE"/>
<path id="Vector 10" d="M-386.052 127.168C-336.9 30.9154 -167.937 87.0337 -89.6001 127.124C-44.4241 142.854 -50.5261 213.922 -50.538 295.142C-50.5529 396.666 31.697 295.13 197.182 295.105C362.667 295.081 197.174 351.959 197.152 498.154C197.131 644.35 61.0893 634.217 -21.6654 716.972C-104.42 799.727 -169.891 716.994 -224.714 717.002C-279.538 717.01 -299.314 570.31 -224.682 495.678C-150.05 421.047 -333.801 361.174 -386.082 334.278C-438.363 307.382 -447.492 247.484 -386.052 127.168Z" fill="#10BCCA"/>
<g id="Body" filter="url(#filter0_b_530_6541)">
<rect width="500" height="980" transform="translate(-215 -400)" fill="#4BC5BE" fill-opacity="0.2"/>
<g id="Frame 163">
<g id="Frame 162">
<g id="Capa_1">
<g clip-path="url(#clip1_530_6541)">
<path id="Vector" d="M35 70.5C54.33 70.5 70 54.83 70 35.5C70 16.17 54.33 0.5 35 0.5C15.67 0.5 0 16.17 0 35.5C0 54.83 15.67 70.5 35 70.5Z" fill="url(#paint0_linear_530_6541)"/>
<path id="Vector_2" d="M49.2172 34.4564H43.8543C47.6287 28.7729 48.7981 21.8237 46.9748 15.3606C46.8491 14.9016 46.4739 14.5244 46.0129 14.3986C38.0032 12.1416 29.2286 14.5244 23.128 20.6396C17.2224 26.5452 14.8124 34.9301 16.7069 42.7302L12.0272 47.4098C11.4844 47.9526 11.4844 48.8307 12.0272 49.3735C12.3059 49.6522 12.6538 49.778 13.0164 49.778C13.3789 49.778 13.7268 49.6397 14.0055 49.3735L18.6852 44.6938C20.3995 45.1109 22.1682 45.3351 23.937 45.3351C25.3998 45.3351 26.8751 45.1821 28.3379 44.9034V51.1863C28.3379 53.4852 30.2177 55.3651 32.5167 55.3651H49.2319C51.5308 55.3651 53.4107 53.4852 53.4107 51.1863V38.6499C53.4107 36.3509 51.5308 34.4711 49.2319 34.4711L49.2172 34.4564ZM25.0917 22.6032C30.2869 17.408 37.67 15.2495 44.4956 16.8925C45.9437 22.9511 44.4118 29.4142 40.3734 34.4564H32.4895C31.7224 34.4564 31.0267 34.6786 30.4147 35.0285H28.3253L31.9739 31.38H38.9106C39.6776 31.38 40.3043 30.7534 40.3043 29.9863C40.3043 29.2193 39.6776 28.5927 38.9106 28.5927H34.7591L38.284 25.0678C38.8268 24.525 38.8268 23.6469 38.284 23.1041C37.7412 22.5613 36.8631 22.5613 36.3204 23.1041L32.7954 26.6291V22.4775C32.7954 21.7105 32.1688 21.0839 31.4018 21.0839C30.6348 21.0839 30.0082 21.7105 30.0082 22.4775V29.4142L26.3596 33.0628V28.9113C26.3596 28.1442 25.733 27.5176 24.966 27.5176C24.1989 27.5176 23.5723 28.1442 23.5723 28.9113V35.848L19.0729 40.3474C18.1256 33.9954 20.3135 27.3793 25.1043 22.6012H25.0896L25.0917 22.6032ZM21.0533 42.2985L25.5381 37.8137H28.4071C28.3505 38.0778 28.3232 38.3565 28.3232 38.6352V42.0344C25.9132 42.5646 23.4487 42.661 21.0659 42.2985H21.0512H21.0533ZM50.5962 51.1716C50.5962 51.9386 49.9695 52.5652 49.2025 52.5652H32.4874C31.7203 52.5652 31.0937 51.9386 31.0937 51.1716V38.6352C31.0937 37.8682 31.7203 37.2416 32.4874 37.2416H49.2025C49.9695 37.2416 50.5962 37.8682 50.5962 38.6352V51.1716Z" fill="url(#paint1_linear_530_6541)"/>
<path id="Vector_3" d="M47.8233 47.6907V44.9056C47.8233 44.1385 47.1967 43.5119 46.4297 43.5119C45.6626 43.5119 45.036 44.1385 45.036 44.9056V47.6907H42.2509V40.7268C42.2509 39.9597 41.6243 39.3331 40.8572 39.3331C40.0902 39.3331 39.4636 39.9597 39.4636 40.7268V47.6907H36.6784V46.2971C36.6784 45.5301 36.0518 44.9035 35.2848 44.9035C34.5178 44.9035 33.8912 45.5301 33.8912 46.2971V47.6907C33.1242 47.6907 32.4976 48.3173 32.4976 49.0843C32.4976 49.8514 33.1242 50.478 33.8912 50.478H47.8191C48.5861 50.478 49.2127 49.8514 49.2127 49.0843C49.2127 48.3173 48.5861 47.6907 47.8191 47.6907H47.8233Z" fill="url(#paint2_linear_530_6541)"/>
</g>
</g>
</g>
</g>
</g>
</g>
<defs>
<filter id="filter0_b_530_6541" x="-265" y="-450" width="600" height="1080" filterUnits="userSpaceOnUse" color-interpolation-filters="sRGB">
<feFlood flood-opacity="0" result="BackgroundImageFix"/>
<feGaussianBlur in="BackgroundImageFix" stdDeviation="25"/>
<feComposite in2="SourceAlpha" operator="in" result="effect1_backgroundBlur_530_6541"/>
<feBlend mode="normal" in="SourceGraphic" in2="effect1_backgroundBlur_530_6541" result="shape"/>
</filter>
<linearGradient id="paint0_linear_530_6541" x1="35" y1="0.5" x2="35" y2="70.5" gradientUnits="userSpaceOnUse">
<stop stop-color="white" stop-opacity="0.8"/>
<stop offset="1" stop-color="white" stop-opacity="0.6"/>
</linearGradient>
<linearGradient id="paint1_linear_530_6541" x1="32.5154" y1="13.5616" x2="32.5154" y2="55.3651" gradientUnits="userSpaceOnUse">
<stop stop-color="#4BC5BE"/>
<stop offset="1" stop-color="#1697B3"/>
</linearGradient>
<linearGradient id="paint2_linear_530_6541" x1="40.8551" y1="39.3331" x2="40.8551" y2="50.478" gradientUnits="userSpaceOnUse">
<stop stop-color="#4BC5BE"/>
<stop offset="1" stop-color="#1697B3"/>
</linearGradient>
<clipPath id="clip0_530_6541">
<rect width="500" height="980" fill="white" transform="translate(-215 -400)"/>
</clipPath>
<clipPath id="clip1_530_6541">
<rect y="0.5" width="70" height="70" rx="35" fill="white"/>
</clipPath>
</defs>
</svg>
