<svg xmlns="http://www.w3.org/2000/svg" width="512" height="512" viewBox="0 0 512 512"><path d="M427.68 351.43C402 320 396 304 396 224c0-75.85-52.68-141.42-124-159.07V56a16 16 0 0 0-32 0v8.93C168.68 82.58 116 148.15 116 224c0 80-6 96-31.68 127.43A16 16 0 0 0 96 376h320a16 16 0 0 0 11.68-24.57z" fill="none" stroke="currentColor" stroke-linecap="round" stroke-linejoin="round" stroke-width="32"/><path d="M192 376v8a64 64 0 0 0 128 0v-8" fill="none" stroke="currentColor" stroke-linecap="round" stroke-linejoin="round" stroke-width="32"/></svg>
