<svg width="20" height="20" viewBox="0 0 20 20" fill="none" xmlns="http://www.w3.org/2000/svg">
<path fill-rule="evenodd" clip-rule="evenodd" d="M11.1203 3.70088C10.7533 3.34601 10.1682 3.34975 9.80584 3.71209L9.79463 3.72348C9.43976 4.09042 9.4435 4.67557 9.80584 5.03791L13.8304 9.0625H3.90625L3.89075 9.06263C3.38013 9.0709 2.96875 9.48741 2.96875 10C2.96875 10.5178 3.38848 10.9375 3.90625 10.9375H13.8304L9.80584 14.9621L9.79463 14.9735C9.43976 15.3404 9.4435 15.9256 9.80584 16.2879C10.172 16.654 10.7655 16.654 11.1317 16.2879L16.7567 10.6629L16.7679 10.6515C17.1227 10.2846 17.119 9.69943 16.7567 9.33709L11.1317 3.71209L11.1203 3.70088Z" fill="#92949C"/>
</svg>
