<svg width="16" height="17" viewBox="0 0 16 17" fill="none" xmlns="http://www.w3.org/2000/svg">
<path d="M11.3333 11.1667L14 8.50008M14 8.50008L11.3333 5.83341M14 8.50008H4.66667M8.66667 11.1667V11.8334C8.66667 12.3638 8.45595 12.8726 8.08088 13.2476C7.70581 13.6227 7.1971 13.8334 6.66667 13.8334H4C3.46957 13.8334 2.96086 13.6227 2.58579 13.2476C2.21071 12.8726 2 12.3638 2 11.8334V5.16675C2 4.63631 2.21071 4.12761 2.58579 3.75253C2.96086 3.37746 3.46957 3.16675 4 3.16675H6.66667C7.1971 3.16675 7.70581 3.37746 8.08088 3.75253C8.45595 4.12761 8.66667 4.63631 8.66667 5.16675V5.83341" stroke="#10BCCA" stroke-width="2" stroke-linecap="round" stroke-linejoin="round"/>
</svg>
