<svg width="20" height="20" viewBox="0 0 20 20" fill="none" xmlns="http://www.w3.org/2000/svg">
<path fill-rule="evenodd" clip-rule="evenodd" d="M16.1117 1.25C16.8147 1.25 17.4581 1.64331 17.779 2.26752L17.7887 2.28651L18.9996 4.70837C19.2922 5.29352 19.2584 5.98832 18.9118 6.54181L18.9 6.56041L14.913 12.7682C14.9762 13.0857 15.0093 13.414 15.0093 13.75C15.0093 16.5114 12.7708 18.75 10.0093 18.75C7.2479 18.75 5.00933 16.5114 5.00933 13.75C5.00933 13.414 5.04247 13.0857 5.10568 12.7682L1.11789 6.5613C0.764234 6.01091 0.723288 5.3165 1.00854 4.72893L1.01828 4.70916L2.22901 2.2877C2.54328 1.65802 3.18332 1.25788 3.88568 1.25012L3.90698 1.25H16.1117ZM17.8484 5.88479L14.3696 11.3011C13.9808 10.6104 13.4327 10.0214 12.775 9.5839L16.8163 3.13689L17.8816 5.2674L17.8881 5.28091C17.9796 5.47529 17.9649 5.70349 17.8484 5.88479ZM10.0093 8.75C10.584 8.75 11.136 8.84694 11.6498 9.02535L13.3896 6.25H6.62891L8.36875 9.02537C8.88266 8.84694 9.43467 8.75 10.0093 8.75ZM7.2436 9.58393C6.58591 10.0214 6.03773 10.6105 5.64897 11.3013L2.40364 6.25H5.1536L7.2436 9.58393ZM5.49871 5C5.49884 5 5.49897 5 5.4991 5H14.1731L15.7403 2.5H3.90683C3.67452 2.49994 3.46177 2.62868 3.35361 2.8339L3.34725 2.84631L2.2704 5H5.49871ZM10.0093 10C12.0804 10 13.7593 11.6789 13.7593 13.75C13.7593 15.8211 12.0804 17.5 10.0093 17.5C7.93826 17.5 6.25933 15.8211 6.25933 13.75C6.25933 11.6789 7.93826 10 10.0093 10ZM10.0093 11.25C8.62861 11.25 7.50933 12.3693 7.50933 13.75C7.50933 15.1307 8.62861 16.25 10.0093 16.25C11.39 16.25 12.5093 15.1307 12.5093 13.75C12.5093 12.3693 11.39 11.25 10.0093 11.25ZM10.0093 12.5C10.6997 12.5 11.2593 13.0596 11.2593 13.75C11.2593 14.4404 10.6997 15 10.0093 15C9.31897 15 8.75933 14.4404 8.75933 13.75C8.75933 13.0596 9.31897 12.5 10.0093 12.5Z" fill="#92949C"/>
</svg>
