<svg width="20" height="20" viewBox="0 0 20 20" fill="none" xmlns="http://www.w3.org/2000/svg">
<path fill-rule="evenodd" clip-rule="evenodd" d="M17.5 1.875C17.8411 1.875 18.1183 2.1482 18.1249 2.4877L18.125 2.5V6.875C18.125 7.22018 17.8452 7.5 17.5 7.5C17.1589 7.5 16.8817 7.2268 16.8751 6.8873L16.875 6.875V4.00888L9.19194 11.6919C8.94786 11.936 8.55214 11.936 8.30806 11.6919C8.06737 11.4513 8.06403 11.0631 8.29803 10.8183L8.30806 10.8081L15.9911 3.125H13.125C12.7839 3.125 12.5067 2.8518 12.5001 2.5123L12.5 2.5C12.5 2.15893 12.7732 1.88167 13.1127 1.87512L13.125 1.875H17.5ZM10.6047 4.375C10.9499 4.375 11.2297 4.65482 11.2297 5C11.2297 5.34107 10.9565 5.61833 10.617 5.62488L10.6047 5.625H4.0625C3.54991 5.625 3.1334 6.03638 3.12513 6.547L3.125 6.5625V15.9375C3.125 16.4501 3.53638 16.8666 4.047 16.8749L4.0625 16.875H13.4375C13.6861 16.875 13.9246 16.7762 14.1004 16.6004C14.272 16.4288 14.3703 16.1975 14.3748 15.9552L14.375 15.9375V8.75C14.375 8.40482 14.6548 8.125 15 8.125C15.3411 8.125 15.6183 8.3982 15.6249 8.7377L15.625 8.75V15.9375C15.625 16.5177 15.3945 17.0741 14.9843 17.4843C14.58 17.8886 14.0338 18.1183 13.4627 18.1249L13.4375 18.125H4.0625C2.86646 18.125 1.89461 17.1651 1.87529 15.9737L1.875 15.9375V6.5625C1.875 5.36646 2.83489 4.39461 4.02633 4.37529L4.0625 4.375H10.6047Z" fill="#92949C"/>
</svg>
