<svg width="20" height="20" viewBox="0 0 20 20" fill="none" xmlns="http://www.w3.org/2000/svg">
<path fill-rule="evenodd" clip-rule="evenodd" d="M11.3567 5.625H2.5C2.15482 5.625 1.875 5.34518 1.875 5C1.875 4.65893 2.1482 4.38167 2.4877 4.37512L2.5 4.375H11.3567C11.6141 3.64675 12.3086 3.125 13.125 3.125C13.9414 3.125 14.6359 3.64675 14.8933 4.375H17.5C17.8452 4.375 18.125 4.65482 18.125 5C18.125 5.34107 17.8518 5.61833 17.5123 5.62488L17.5 5.625H14.8933C14.6359 6.35325 13.9414 6.875 13.125 6.875C12.3086 6.875 11.6141 6.35325 11.3567 5.625ZM12.5 5C12.5 5.34518 12.7798 5.625 13.125 5.625C13.4702 5.625 13.75 5.34518 13.75 5C13.75 4.65482 13.4702 4.375 13.125 4.375C12.7798 4.375 12.5 4.65482 12.5 5ZM18.125 15C18.125 14.6548 17.8452 14.375 17.5 14.375H14.8933C14.6359 13.6468 13.9414 13.125 13.125 13.125C12.3086 13.125 11.6141 13.6468 11.3567 14.375H2.5L2.4877 14.3751C2.1482 14.3817 1.875 14.6589 1.875 15C1.875 15.3452 2.15482 15.625 2.5 15.625H11.3567C11.6141 16.3532 12.3086 16.875 13.125 16.875C13.9414 16.875 14.6359 16.3532 14.8933 15.625H17.5L17.5123 15.6249C17.8518 15.6183 18.125 15.3411 18.125 15ZM12.5 15C12.5 15.3452 12.7798 15.625 13.125 15.625C13.4702 15.625 13.75 15.3452 13.75 15C13.75 14.6548 13.4702 14.375 13.125 14.375C12.7798 14.375 12.5 14.6548 12.5 15ZM18.125 10C18.125 9.65482 17.8452 9.375 17.5 9.375H8.64331C8.38591 8.64675 7.69139 8.125 6.875 8.125C6.05861 8.125 5.36409 8.64675 5.10669 9.375H2.5L2.4877 9.37512C2.1482 9.38167 1.875 9.65893 1.875 10C1.875 10.3452 2.15482 10.625 2.5 10.625H5.10669C5.36409 11.3532 6.05861 11.875 6.875 11.875C7.69139 11.875 8.38591 11.3532 8.64331 10.625H17.5L17.5123 10.6249C17.8518 10.6183 18.125 10.3411 18.125 10ZM6.875 10.625C6.52982 10.625 6.25 10.3452 6.25 10C6.25 9.65482 6.52982 9.375 6.875 9.375C7.22018 9.375 7.5 9.65482 7.5 10C7.5 10.3452 7.22018 10.625 6.875 10.625Z" fill="#92949C"/>
</svg>
