<svg width="21" height="20" viewBox="0 0 21 20" fill="none" xmlns="http://www.w3.org/2000/svg">
<g id="pencil">
<path id="Vector" d="M14.4396 3.93947L14.4396 3.93952L14.4456 3.93327C14.584 3.79001 14.7495 3.67574 14.9325 3.59712C15.1155 3.51851 15.3124 3.47713 15.5115 3.4754C15.7107 3.47367 15.9082 3.51162 16.0926 3.58704C16.2769 3.66246 16.4444 3.77384 16.5852 3.91468C16.7261 4.05552 16.8375 4.223 16.9129 4.40734C16.9883 4.59169 17.0263 4.78921 17.0245 4.98838C17.0228 5.18755 16.9814 5.38438 16.9028 5.56738C16.8242 5.75039 16.7099 5.9159 16.5666 6.05427L16.5666 6.05422L16.5604 6.06036L16.121 6.49981L14.0001 4.37892L14.4396 3.93947ZM11.8786 6.5004L14.0007 8.62102L6.12091 16.4999H4V14.379L11.8786 6.5004Z" fill="white" stroke="#FAFAFA"/>
</g>
</svg>
