<svg width="20" height="20" viewBox="0 0 20 20" fill="none" xmlns="http://www.w3.org/2000/svg">
<path fill-rule="evenodd" clip-rule="evenodd" d="M12.5 4.375C12.5 2.99429 13.6193 1.875 15 1.875C16.3807 1.875 17.5 2.99429 17.5 4.375C17.5 5.75571 16.3807 6.875 15 6.875C14.2914 6.875 13.6516 6.58017 13.1967 6.10648L7.41671 9.35767C7.47105 9.56264 7.5 9.77794 7.5 10C7.5 10.2221 7.47105 10.4374 7.41671 10.6423L13.1967 13.8935C13.6516 13.4198 14.2914 13.125 15 13.125C16.3807 13.125 17.5 14.2443 17.5 15.625C17.5 17.0057 16.3807 18.125 15 18.125C13.6193 18.125 12.5 17.0057 12.5 15.625C12.5 15.4029 12.529 15.1876 12.5833 14.9827L6.80333 11.7315C6.34839 12.2052 5.70863 12.5 5 12.5C3.61929 12.5 2.5 11.3807 2.5 10C2.5 8.61929 3.61929 7.5 5 7.5C5.70863 7.5 6.34839 7.79483 6.80333 8.26852L12.5833 5.01733C12.529 4.81236 12.5 4.59706 12.5 4.375ZM13.92 5.00472C13.917 4.99903 13.9139 4.99337 13.9108 4.98773C13.9075 4.98186 13.9041 4.97607 13.9006 4.97035C13.8046 4.79335 13.75 4.59054 13.75 4.375C13.75 3.68464 14.3096 3.125 15 3.125C15.6904 3.125 16.25 3.68464 16.25 4.375C16.25 5.06536 15.6904 5.625 15 5.625C14.5393 5.625 14.1368 5.37574 13.92 5.00472ZM6.08002 9.37027C5.86323 8.99925 5.46072 8.75 5 8.75C4.30964 8.75 3.75 9.30964 3.75 10C3.75 10.6904 4.30964 11.25 5 11.25C5.46072 11.25 5.86323 11.0007 6.08002 10.6297L6.08925 10.6127C6.09255 10.6069 6.09593 10.6011 6.0994 10.5953C6.19545 10.4183 6.25 10.2155 6.25 10C6.25 9.78446 6.19545 9.58166 6.0994 9.40466C6.09593 9.39894 6.09255 9.39314 6.08925 9.38727C6.08608 9.38163 6.083 9.37596 6.08002 9.37027ZM13.9108 15.0123C13.9075 15.0181 13.9041 15.0239 13.9006 15.0297C13.8046 15.2067 13.75 15.4095 13.75 15.625C13.75 16.3154 14.3096 16.875 15 16.875C15.6904 16.875 16.25 16.3154 16.25 15.625C16.25 14.9346 15.6904 14.375 15 14.375C14.5393 14.375 14.1368 14.6243 13.92 14.9953L13.9108 15.0123Z" fill="#92949C"/>
</svg>
