<svg width="16" height="17" viewBox="0 0 16 17" fill="none" xmlns="http://www.w3.org/2000/svg">
<g id="trash">
<path id="Vector" d="M6.93246 2.766L6.93234 2.76623L6.35314 3.92383L6.21491 4.2001H5.90599H3.20039C3.12083 4.2001 3.04452 4.2317 2.98826 4.28797C2.932 4.34423 2.90039 4.42053 2.90039 4.5001C2.90039 4.57966 2.932 4.65597 2.98826 4.71223C3.04452 4.76849 3.12083 4.8001 3.20039 4.8001H3.70039V5.3001V13.3001C3.70039 13.5918 3.81628 13.8716 4.02257 14.0779C4.22886 14.2842 4.50865 14.4001 4.80039 14.4001H11.2004C11.4921 14.4001 11.7719 14.2842 11.9782 14.0779C12.1845 13.8716 12.3004 13.5918 12.3004 13.3001V5.3001V4.8001H12.8004C12.88 4.8001 12.9563 4.76849 13.0125 4.71223C13.0688 4.65597 13.1004 4.57966 13.1004 4.5001C13.1004 4.42053 13.0688 4.34423 13.0125 4.28797C12.9563 4.2317 12.88 4.2001 12.8004 4.2001H10.0948H9.78587L9.64764 3.92383L9.06844 2.76623L9.06832 2.766C9.04343 2.71617 9.00515 2.67426 8.95778 2.64496C8.91044 2.61568 8.85588 2.60014 8.80021 2.6001C8.80018 2.6001 8.80015 2.6001 8.80012 2.6001L6.93246 2.766ZM6.93246 2.766C6.95736 2.71617 6.99563 2.67426 7.043 2.64496C7.09037 2.61566 7.14496 2.60013 7.20066 2.6001L6.93246 2.766ZM5.48115 5.98086C5.23736 6.22466 5.10039 6.55532 5.10039 6.9001V11.7001C5.10039 12.0449 5.23736 12.3755 5.48115 12.6193C5.72495 12.8631 6.05561 13.0001 6.40039 13.0001C6.74517 13.0001 7.07583 12.8631 7.31963 12.6193C7.56343 12.3755 7.70039 12.0449 7.70039 11.7001V6.9001C7.70039 6.55532 7.56343 6.22466 7.31963 5.98086C7.07583 5.73706 6.74517 5.6001 6.40039 5.6001C6.05561 5.6001 5.72495 5.73706 5.48115 5.98086ZM9.60039 5.6001C9.25561 5.6001 8.92495 5.73706 8.68115 5.98086C8.43736 6.22466 8.30039 6.55532 8.30039 6.9001V11.7001C8.30039 12.0449 8.43736 12.3755 8.68115 12.6193C8.92495 12.8631 9.25561 13.0001 9.60039 13.0001C9.94517 13.0001 10.2758 12.8631 10.5196 12.6193C10.7634 12.3755 10.9004 12.0449 10.9004 11.7001V6.9001C10.9004 6.55532 10.7634 6.22466 10.5196 5.98086C10.2758 5.73706 9.94517 5.6001 9.60039 5.6001Z" fill="#CA514A" stroke="#CA514A"/>
</g>
</svg>
