<svg width="19" height="19" viewBox="0 0 19 19" fill="none" xmlns="http://www.w3.org/2000/svg">
<path d="M10.3349 4.13964L14.1985 8.00329L15.0521 8.85684H13.845H3.41758C3.31149 8.85684 3.20975 8.89898 3.13474 8.974C3.05972 9.04901 3.01758 9.15075 3.01758 9.25684C3.01758 9.36293 3.05972 9.46467 3.13474 9.53968C3.20975 9.6147 3.31149 9.65684 3.41758 9.65684H13.845H15.0521L14.1985 10.5104L10.3385 14.3704C10.2672 14.4456 10.2278 14.5455 10.2287 14.6493C10.2296 14.7541 10.2716 14.8545 10.3458 14.9286C10.42 15.0028 10.5203 15.0449 10.6252 15.0458C10.7289 15.0467 10.8288 15.0073 10.904 14.9359L16.3003 9.53964C16.3003 9.53962 16.3003 9.5396 16.3003 9.53959C16.3753 9.46458 16.4174 9.36288 16.4174 9.25684C16.4174 9.1508 16.3753 9.0491 16.3003 8.97409L10.3349 4.13964ZM10.3349 4.13964C10.3349 4.13962 10.3348 4.1396 10.3348 4.13959M10.3349 4.13964L10.3348 4.13959M10.3348 3.57415C10.3348 3.57411 10.3348 3.57407 10.3349 3.57404C10.4099 3.49912 10.5116 3.45703 10.6176 3.45703C10.7236 3.45703 10.8253 3.49914 10.9003 3.57409C10.9003 3.57411 10.9004 3.57413 10.9004 3.57415L16.3003 8.97404L10.3348 3.57415ZM10.3348 3.57415C10.2599 3.64915 10.2178 3.75082 10.2178 3.85684C10.2178 3.96288 10.2599 4.06458 10.3348 4.13959M10.3348 3.57415L10.3348 4.13959" fill="#10BCCA" stroke="#10BCCA"/>
</svg>
