<svg width="20" height="20" viewBox="0 0 20 20" fill="none" xmlns="http://www.w3.org/2000/svg">
<g id="Icons/Checkmark circle">
<path id="Icon" fill-rule="evenodd" clip-rule="evenodd" d="M10 1.875C5.5142 1.875 1.875 5.5142 1.875 10C1.875 14.4858 5.51419 18.125 10 18.125C14.4858 18.125 18.125 14.4858 18.125 10C18.125 5.5142 14.4858 1.875 10 1.875ZM10 3.125C13.7954 3.125 16.875 6.20456 16.875 10C16.875 13.7954 13.7954 16.875 10 16.875C6.20455 16.875 3.125 13.7954 3.125 10C3.125 6.20455 6.20455 3.125 10 3.125ZM14.152 6.39644C13.8877 6.17442 13.4934 6.2087 13.2714 6.47301L8.48371 12.1726L6.71456 10.2069L6.70498 10.1965C6.47284 9.94981 6.08495 9.93269 5.8319 10.1604C5.57533 10.3914 5.55453 10.7865 5.78544 11.0431L8.03544 13.5431L8.04459 13.5531C8.30001 13.8251 8.73725 13.8143 8.97856 13.527L14.2286 7.277L14.2374 7.26621C14.4496 7.00207 14.4127 6.61545 14.152 6.39644Z" fill="#404040"/>
</g>
</svg>
