<svg width="14" height="14" viewBox="0 0 14 14" fill="none" xmlns="http://www.w3.org/2000/svg">
<g id="check">
<path d="M0 7C0 3.13401 3.13401 0 7 0C10.866 0 14 3.13401 14 7C14 10.866 10.866 14 7 14C3.13401 14 0 10.866 0 7Z" fill="#2CD9E4"/>
<path id="Vector" d="M5.24722 9.1636L5.60077 9.51716L5.95433 9.1636L11.0594 4.05856C11.0594 4.05854 11.0594 4.05852 11.0594 4.0585C11.0969 4.02104 11.1478 4 11.2008 4C11.2538 4 11.3047 4.02106 11.3422 4.05856C11.3796 4.09605 11.4006 4.14687 11.4006 4.19985C11.4006 4.25286 11.3796 4.3037 11.3421 4.3412C11.3421 4.34121 11.3421 4.34123 11.3421 4.34125L5.74217 9.94114C5.70467 9.97864 5.65381 9.9997 5.60077 9.9997C5.54774 9.9997 5.49688 9.97864 5.45937 9.94114L2.66343 7.1452C2.62832 7.10773 2.60894 7.05814 2.60938 7.00671C2.60984 6.95427 2.63087 6.90411 2.66795 6.86703C2.70504 6.82995 2.7552 6.80892 2.80764 6.80846C2.85907 6.80801 2.90865 6.82739 2.94612 6.86251L5.24722 9.1636Z" fill="#EDFEFE" stroke="#EDFEFE"/>
</g>
</svg>
