<svg width="17" height="17" viewBox="0 0 17 17" fill="none" xmlns="http://www.w3.org/2000/svg">
<g id="cloud">
<path id="Vector" d="M3.28105 12.3856C2.78095 11.8855 2.5 11.2072 2.5 10.5C2.49997 9.89461 2.70587 9.30722 3.08387 8.83436C3.46187 8.3615 3.98948 8.03129 4.58 7.89798C4.47861 7.46632 4.46432 7.01877 4.53797 6.58152C4.61163 6.14427 4.77175 5.7261 5.00897 5.35147C5.24618 4.97685 5.55573 4.6533 5.9195 4.39975C6.28326 4.1462 6.69394 3.96774 7.12751 3.87482C7.56108 3.7819 8.00882 3.77638 8.44455 3.85859C8.88027 3.9408 9.29523 4.10908 9.66513 4.35359C10.035 4.5981 10.3525 4.91392 10.5988 5.28259C10.8452 5.65125 11.0156 6.06535 11.1 6.50065C11.5405 6.49184 11.9783 6.57043 12.3882 6.73187C12.7981 6.89331 13.1719 7.1344 13.4881 7.4412C13.8042 7.74801 14.0564 8.11444 14.2301 8.51931C14.4037 8.92418 14.4954 9.35946 14.4998 9.79998C14.5042 10.2405 14.4213 10.6775 14.2557 11.0858C14.0902 11.4941 13.8454 11.8655 13.5354 12.1785C13.2255 12.4916 12.8566 12.7401 12.45 12.9097C12.0434 13.0793 11.6072 13.1667 11.1667 13.1667H5.16667C4.45942 13.1667 3.78115 12.8857 3.28105 12.3856Z" stroke="white" stroke-width="2" stroke-linecap="round" stroke-linejoin="round"/>
</g>
</svg>
