<svg width="40" height="40" viewBox="0 0 40 40" fill="none" xmlns="http://www.w3.org/2000/svg">
<rect width="40" height="40" rx="20" fill="#1097AA"/>
<path d="M19.2002 19.2305V20.748C19.2002 21.5638 19.1273 22.252 18.9814 22.8125C18.8356 23.373 18.626 23.8242 18.3525 24.166C18.0791 24.5078 17.7487 24.7562 17.3613 24.9111C16.9785 25.0615 16.5456 25.1367 16.0625 25.1367C15.6797 25.1367 15.3265 25.0889 15.0029 24.9932C14.6794 24.8975 14.3877 24.7448 14.1279 24.5352C13.8727 24.321 13.654 24.043 13.4717 23.7012C13.2894 23.3594 13.1504 22.9447 13.0547 22.457C12.959 21.9694 12.9111 21.3997 12.9111 20.748V19.2305C12.9111 18.4147 12.984 17.7311 13.1299 17.1797C13.2803 16.6283 13.4922 16.1862 13.7656 15.8535C14.0391 15.5163 14.3672 15.2747 14.75 15.1289C15.1374 14.9831 15.5703 14.9102 16.0488 14.9102C16.4362 14.9102 16.7917 14.958 17.1152 15.0537C17.4434 15.1449 17.735 15.293 17.9902 15.498C18.2454 15.6986 18.4619 15.9674 18.6396 16.3047C18.8219 16.6374 18.9609 17.0452 19.0566 17.5283C19.1523 18.0114 19.2002 18.5788 19.2002 19.2305ZM17.9287 20.9531V19.0186C17.9287 18.5719 17.9014 18.18 17.8467 17.8428C17.7965 17.501 17.7214 17.2093 17.6211 16.9678C17.5208 16.7262 17.3932 16.5303 17.2383 16.3799C17.0879 16.2295 16.9124 16.1201 16.7119 16.0518C16.516 15.9788 16.2949 15.9424 16.0488 15.9424C15.748 15.9424 15.4814 15.9993 15.249 16.1133C15.0166 16.2227 14.8206 16.3981 14.6611 16.6396C14.5062 16.8812 14.3877 17.1979 14.3057 17.5898C14.2236 17.9818 14.1826 18.458 14.1826 19.0186V20.9531C14.1826 21.3997 14.2077 21.7939 14.2578 22.1357C14.3125 22.4775 14.3923 22.7738 14.4971 23.0244C14.6019 23.2705 14.7295 23.4733 14.8799 23.6328C15.0303 23.7923 15.2035 23.9108 15.3994 23.9883C15.5999 24.0612 15.821 24.0977 16.0625 24.0977C16.3724 24.0977 16.6436 24.0384 16.876 23.9199C17.1084 23.8014 17.3021 23.6169 17.457 23.3662C17.6165 23.111 17.735 22.7852 17.8125 22.3887C17.89 21.9876 17.9287 21.5091 17.9287 20.9531ZM27.5537 21.6504V22.6895H20.3623V21.9443L24.8193 15.0469H25.8516L24.7441 17.043L21.7979 21.6504H27.5537ZM26.166 15.0469V25H24.9014V15.0469H26.166Z" fill="white"/>
<path d="M26 33C26 29.134 29.134 26 33 26C36.866 26 40 29.134 40 33C40 36.866 36.866 40 33 40C29.134 40 26 36.866 26 33Z" fill="#2CD9E4"/>
<path d="M31.2462 35.1636L31.5998 35.5172L31.9534 35.1636L37.0584 30.0586C37.0584 30.0585 37.0584 30.0585 37.0585 30.0585C37.096 30.021 37.1468 30 37.1998 30C37.2528 30 37.3037 30.0211 37.3412 30.0586C37.3786 30.0961 37.3996 30.1469 37.3996 30.1999C37.3996 30.2529 37.3786 30.3037 37.3411 30.3412C37.3411 30.3412 37.3411 30.3412 37.3411 30.3413L31.7412 35.9411C31.7037 35.9786 31.6528 35.9997 31.5998 35.9997C31.5468 35.9997 31.4959 35.9786 31.4584 35.9411L28.6625 33.1452C28.6273 33.1077 28.608 33.0581 28.6084 33.0067C28.6089 32.9543 28.6299 32.9041 28.667 32.867C28.7041 32.8299 28.7542 32.8089 28.8067 32.8085C28.8581 32.808 28.9077 32.8274 28.9451 32.8625L31.2462 35.1636Z" fill="#EDFEFE" stroke="#EDFEFE"/>
</svg>
