<svg width="126" height="40" viewBox="0 0 126 40" fill="none" xmlns="http://www.w3.org/2000/svg">
<rect x="1" y="1" width="38" height="38" rx="19" stroke="#14788A" stroke-width="2"/>
<path d="M19.2002 19.2305V20.748C19.2002 21.5638 19.1273 22.252 18.9814 22.8125C18.8356 23.373 18.626 23.8242 18.3525 24.166C18.0791 24.5078 17.7487 24.7562 17.3613 24.9111C16.9785 25.0615 16.5456 25.1367 16.0625 25.1367C15.6797 25.1367 15.3265 25.0889 15.0029 24.9932C14.6794 24.8975 14.3877 24.7448 14.1279 24.5352C13.8727 24.321 13.654 24.043 13.4717 23.7012C13.2894 23.3594 13.1504 22.9447 13.0547 22.457C12.959 21.9694 12.9111 21.3997 12.9111 20.748V19.2305C12.9111 18.4147 12.984 17.7311 13.1299 17.1797C13.2803 16.6283 13.4922 16.1862 13.7656 15.8535C14.0391 15.5163 14.3672 15.2747 14.75 15.1289C15.1374 14.9831 15.5703 14.9102 16.0488 14.9102C16.4362 14.9102 16.7917 14.958 17.1152 15.0537C17.4434 15.1449 17.735 15.293 17.9902 15.498C18.2454 15.6986 18.4619 15.9674 18.6396 16.3047C18.8219 16.6374 18.9609 17.0452 19.0566 17.5283C19.1523 18.0114 19.2002 18.5788 19.2002 19.2305ZM17.9287 20.9531V19.0186C17.9287 18.5719 17.9014 18.18 17.8467 17.8428C17.7965 17.501 17.7214 17.2093 17.6211 16.9678C17.5208 16.7262 17.3932 16.5303 17.2383 16.3799C17.0879 16.2295 16.9124 16.1201 16.7119 16.0518C16.516 15.9788 16.2949 15.9424 16.0488 15.9424C15.748 15.9424 15.4814 15.9993 15.249 16.1133C15.0166 16.2227 14.8206 16.3981 14.6611 16.6396C14.5062 16.8812 14.3877 17.1979 14.3057 17.5898C14.2236 17.9818 14.1826 18.458 14.1826 19.0186V20.9531C14.1826 21.3997 14.2077 21.7939 14.2578 22.1357C14.3125 22.4775 14.3923 22.7738 14.4971 23.0244C14.6019 23.2705 14.7295 23.4733 14.8799 23.6328C15.0303 23.7923 15.2035 23.9108 15.3994 23.9883C15.5999 24.0612 15.821 24.0977 16.0625 24.0977C16.3724 24.0977 16.6436 24.0384 16.876 23.9199C17.1084 23.8014 17.3021 23.6169 17.457 23.3662C17.6165 23.111 17.735 22.7852 17.8125 22.3887C17.89 21.9876 17.9287 21.5091 17.9287 20.9531ZM22.6729 19.4014H23.5752C24.0173 19.4014 24.3818 19.3285 24.6689 19.1826C24.9606 19.0322 25.1771 18.8294 25.3184 18.5742C25.4642 18.3145 25.5371 18.0228 25.5371 17.6992C25.5371 17.3164 25.4733 16.9951 25.3457 16.7354C25.2181 16.4756 25.0267 16.2796 24.7715 16.1475C24.5163 16.0153 24.1927 15.9492 23.8008 15.9492C23.4453 15.9492 23.1309 16.0199 22.8574 16.1611C22.5885 16.2979 22.3766 16.4938 22.2217 16.749C22.0713 17.0042 21.9961 17.305 21.9961 17.6514H20.7314C20.7314 17.1455 20.859 16.6852 21.1143 16.2705C21.3695 15.8558 21.7272 15.5254 22.1875 15.2793C22.6523 15.0332 23.1901 14.9102 23.8008 14.9102C24.4023 14.9102 24.9287 15.0173 25.3799 15.2314C25.8311 15.4411 26.182 15.7555 26.4326 16.1748C26.6833 16.5895 26.8086 17.1068 26.8086 17.7266C26.8086 17.9772 26.7493 18.2461 26.6309 18.5332C26.5169 18.8158 26.3369 19.0801 26.0908 19.3262C25.8493 19.5723 25.5348 19.7751 25.1475 19.9346C24.7601 20.0895 24.2952 20.167 23.7529 20.167H22.6729V19.4014ZM22.6729 20.4404V19.6816H23.7529C24.3864 19.6816 24.9105 19.7568 25.3252 19.9072C25.7399 20.0576 26.0658 20.2581 26.3027 20.5088C26.5443 20.7594 26.7129 21.0352 26.8086 21.3359C26.9089 21.6322 26.959 21.9284 26.959 22.2246C26.959 22.6895 26.8792 23.1019 26.7197 23.4619C26.5648 23.8219 26.3438 24.1273 26.0566 24.3779C25.7741 24.6286 25.4414 24.8177 25.0586 24.9453C24.6758 25.0729 24.2588 25.1367 23.8076 25.1367C23.3747 25.1367 22.9668 25.0752 22.584 24.9521C22.2057 24.8291 21.8708 24.6514 21.5791 24.4189C21.2874 24.182 21.0596 23.8926 20.8955 23.5508C20.7314 23.2044 20.6494 22.8102 20.6494 22.3682H21.9141C21.9141 22.7145 21.9893 23.0176 22.1396 23.2773C22.2946 23.5371 22.5133 23.7399 22.7959 23.8857C23.083 24.027 23.4202 24.0977 23.8076 24.0977C24.195 24.0977 24.5277 24.0316 24.8057 23.8994C25.0882 23.7627 25.3047 23.5576 25.4551 23.2842C25.61 23.0107 25.6875 22.6667 25.6875 22.252C25.6875 21.8372 25.6009 21.4977 25.4277 21.2334C25.2546 20.9645 25.0085 20.7663 24.6895 20.6387C24.375 20.5065 24.0036 20.4404 23.5752 20.4404H22.6729Z" fill="#164551"/>
<path d="M63.6171 14.8828L67.4808 18.7464L68.3343 19.6H67.1272H56.6998C56.5937 19.6 56.492 19.6421 56.417 19.7172C56.3419 19.7922 56.2998 19.8939 56.2998 20C56.2998 20.1061 56.3419 20.2078 56.417 20.2828C56.492 20.3579 56.5937 20.4 56.6998 20.4H67.1272H68.3343L67.4808 21.2536L63.6207 25.1136C63.5494 25.1887 63.51 25.2887 63.5109 25.3924C63.5118 25.4973 63.5539 25.5976 63.628 25.6718C63.7022 25.7459 63.8025 25.788 63.9074 25.7889C64.0111 25.7898 64.1111 25.7504 64.1862 25.6791L69.5825 20.2828C69.5825 20.2828 69.5825 20.2828 69.5826 20.2827C69.6575 20.2077 69.6996 20.106 69.6996 20C69.6996 19.894 69.6575 19.7923 69.5826 19.7173L63.6171 14.8828ZM63.6171 14.8828C63.6171 14.8828 63.6171 14.8828 63.6171 14.8827M63.6171 14.8828L63.6171 14.8827M63.617 14.3173C63.617 14.3173 63.6171 14.3172 63.6171 14.3172C63.6921 14.2423 63.7938 14.2002 63.8998 14.2002C64.0058 14.2002 64.1075 14.2423 64.1826 14.3173C64.1826 14.3173 64.1826 14.3173 64.1826 14.3173L69.5825 19.7172L63.617 14.3173ZM63.617 14.3173C63.5421 14.3923 63.5 14.494 63.5 14.6C63.5 14.706 63.5421 14.8077 63.6171 14.8827M63.617 14.3173L63.6171 14.8827" fill="#10BCCA" stroke="#10BCCA"/>
<rect x="86" width="40" height="40" rx="20" fill="#1097AA"/>
<path d="M105.2 19.2305V20.748C105.2 21.5638 105.127 22.252 104.981 22.8125C104.836 23.373 104.626 23.8242 104.353 24.166C104.079 24.5078 103.749 24.7562 103.361 24.9111C102.979 25.0615 102.546 25.1367 102.062 25.1367C101.68 25.1367 101.326 25.0889 101.003 24.9932C100.679 24.8975 100.388 24.7448 100.128 24.5352C99.8727 24.321 99.654 24.043 99.4717 23.7012C99.2894 23.3594 99.1504 22.9447 99.0547 22.457C98.959 21.9694 98.9111 21.3997 98.9111 20.748V19.2305C98.9111 18.4147 98.984 17.7311 99.1299 17.1797C99.2803 16.6283 99.4922 16.1862 99.7656 15.8535C100.039 15.5163 100.367 15.2747 100.75 15.1289C101.137 14.9831 101.57 14.9102 102.049 14.9102C102.436 14.9102 102.792 14.958 103.115 15.0537C103.443 15.1449 103.735 15.293 103.99 15.498C104.245 15.6986 104.462 15.9674 104.64 16.3047C104.822 16.6374 104.961 17.0452 105.057 17.5283C105.152 18.0114 105.2 18.5788 105.2 19.2305ZM103.929 20.9531V19.0186C103.929 18.5719 103.901 18.18 103.847 17.8428C103.797 17.501 103.721 17.2093 103.621 16.9678C103.521 16.7262 103.393 16.5303 103.238 16.3799C103.088 16.2295 102.912 16.1201 102.712 16.0518C102.516 15.9788 102.295 15.9424 102.049 15.9424C101.748 15.9424 101.481 15.9993 101.249 16.1133C101.017 16.2227 100.821 16.3981 100.661 16.6396C100.506 16.8812 100.388 17.1979 100.306 17.5898C100.224 17.9818 100.183 18.458 100.183 19.0186V20.9531C100.183 21.3997 100.208 21.7939 100.258 22.1357C100.312 22.4775 100.392 22.7738 100.497 23.0244C100.602 23.2705 100.729 23.4733 100.88 23.6328C101.03 23.7923 101.203 23.9108 101.399 23.9883C101.6 24.0612 101.821 24.0977 102.062 24.0977C102.372 24.0977 102.644 24.0384 102.876 23.9199C103.108 23.8014 103.302 23.6169 103.457 23.3662C103.617 23.111 103.735 22.7852 103.812 22.3887C103.89 21.9876 103.929 21.5091 103.929 20.9531ZM108.673 19.4014H109.575C110.017 19.4014 110.382 19.3285 110.669 19.1826C110.961 19.0322 111.177 18.8294 111.318 18.5742C111.464 18.3145 111.537 18.0228 111.537 17.6992C111.537 17.3164 111.473 16.9951 111.346 16.7354C111.218 16.4756 111.027 16.2796 110.771 16.1475C110.516 16.0153 110.193 15.9492 109.801 15.9492C109.445 15.9492 109.131 16.0199 108.857 16.1611C108.589 16.2979 108.377 16.4938 108.222 16.749C108.071 17.0042 107.996 17.305 107.996 17.6514H106.731C106.731 17.1455 106.859 16.6852 107.114 16.2705C107.369 15.8558 107.727 15.5254 108.188 15.2793C108.652 15.0332 109.19 14.9102 109.801 14.9102C110.402 14.9102 110.929 15.0173 111.38 15.2314C111.831 15.4411 112.182 15.7555 112.433 16.1748C112.683 16.5895 112.809 17.1068 112.809 17.7266C112.809 17.9772 112.749 18.2461 112.631 18.5332C112.517 18.8158 112.337 19.0801 112.091 19.3262C111.849 19.5723 111.535 19.7751 111.147 19.9346C110.76 20.0895 110.295 20.167 109.753 20.167H108.673V19.4014ZM108.673 20.4404V19.6816H109.753C110.386 19.6816 110.91 19.7568 111.325 19.9072C111.74 20.0576 112.066 20.2581 112.303 20.5088C112.544 20.7594 112.713 21.0352 112.809 21.3359C112.909 21.6322 112.959 21.9284 112.959 22.2246C112.959 22.6895 112.879 23.1019 112.72 23.4619C112.565 23.8219 112.344 24.1273 112.057 24.3779C111.774 24.6286 111.441 24.8177 111.059 24.9453C110.676 25.0729 110.259 25.1367 109.808 25.1367C109.375 25.1367 108.967 25.0752 108.584 24.9521C108.206 24.8291 107.871 24.6514 107.579 24.4189C107.287 24.182 107.06 23.8926 106.896 23.5508C106.731 23.2044 106.649 22.8102 106.649 22.3682H107.914C107.914 22.7145 107.989 23.0176 108.14 23.2773C108.295 23.5371 108.513 23.7399 108.796 23.8857C109.083 24.027 109.42 24.0977 109.808 24.0977C110.195 24.0977 110.528 24.0316 110.806 23.8994C111.088 23.7627 111.305 23.5576 111.455 23.2842C111.61 23.0107 111.688 22.6667 111.688 22.252C111.688 21.8372 111.601 21.4977 111.428 21.2334C111.255 20.9645 111.008 20.7663 110.689 20.6387C110.375 20.5065 110.004 20.4404 109.575 20.4404H108.673Z" fill="white"/>
<path d="M112 33C112 29.134 115.134 26 119 26C122.866 26 126 29.134 126 33C126 36.866 122.866 40 119 40C115.134 40 112 36.866 112 33Z" fill="#2CD9E4"/>
<path d="M117.246 35.1636L117.6 35.5172L117.953 35.1636L123.058 30.0586C123.058 30.0585 123.058 30.0585 123.058 30.0585C123.096 30.021 123.147 30 123.2 30C123.253 30 123.304 30.0211 123.341 30.0586C123.379 30.0961 123.4 30.1469 123.4 30.1999C123.4 30.2529 123.379 30.3037 123.341 30.3412C123.341 30.3412 123.341 30.3412 123.341 30.3413L117.741 35.9411C117.704 35.9786 117.653 35.9997 117.6 35.9997C117.547 35.9997 117.496 35.9786 117.458 35.9411L114.662 33.1452C114.627 33.1077 114.608 33.0581 114.608 33.0067C114.609 32.9543 114.63 32.9041 114.667 32.867C114.704 32.8299 114.754 32.8089 114.807 32.8085C114.858 32.808 114.908 32.8274 114.945 32.8625L117.246 35.1636Z" fill="#EDFEFE" stroke="#EDFEFE"/>
</svg>
