<svg width="40" height="40" viewBox="0 0 40 40" fill="none" xmlns="http://www.w3.org/2000/svg">
<rect x="1" y="1" width="38" height="38" rx="19" stroke="#14788A" stroke-width="2" stroke-dasharray="4 4"/>
<path d="M19.2002 19.2305V20.748C19.2002 21.5638 19.1273 22.252 18.9814 22.8125C18.8356 23.373 18.626 23.8242 18.3525 24.166C18.0791 24.5078 17.7487 24.7562 17.3613 24.9111C16.9785 25.0615 16.5456 25.1367 16.0625 25.1367C15.6797 25.1367 15.3265 25.0889 15.0029 24.9932C14.6794 24.8975 14.3877 24.7448 14.1279 24.5352C13.8727 24.321 13.654 24.043 13.4717 23.7012C13.2894 23.3594 13.1504 22.9447 13.0547 22.457C12.959 21.9694 12.9111 21.3997 12.9111 20.748V19.2305C12.9111 18.4147 12.984 17.7311 13.1299 17.1797C13.2803 16.6283 13.4922 16.1862 13.7656 15.8535C14.0391 15.5163 14.3672 15.2747 14.75 15.1289C15.1374 14.9831 15.5703 14.9102 16.0488 14.9102C16.4362 14.9102 16.7917 14.958 17.1152 15.0537C17.4434 15.1449 17.735 15.293 17.9902 15.498C18.2454 15.6986 18.4619 15.9674 18.6396 16.3047C18.8219 16.6374 18.9609 17.0452 19.0566 17.5283C19.1523 18.0114 19.2002 18.5788 19.2002 19.2305ZM17.9287 20.9531V19.0186C17.9287 18.5719 17.9014 18.18 17.8467 17.8428C17.7965 17.501 17.7214 17.2093 17.6211 16.9678C17.5208 16.7262 17.3932 16.5303 17.2383 16.3799C17.0879 16.2295 16.9124 16.1201 16.7119 16.0518C16.516 15.9788 16.2949 15.9424 16.0488 15.9424C15.748 15.9424 15.4814 15.9993 15.249 16.1133C15.0166 16.2227 14.8206 16.3981 14.6611 16.6396C14.5062 16.8812 14.3877 17.1979 14.3057 17.5898C14.2236 17.9818 14.1826 18.458 14.1826 19.0186V20.9531C14.1826 21.3997 14.2077 21.7939 14.2578 22.1357C14.3125 22.4775 14.3923 22.7738 14.4971 23.0244C14.6019 23.2705 14.7295 23.4733 14.8799 23.6328C15.0303 23.7923 15.2035 23.9108 15.3994 23.9883C15.5999 24.0612 15.821 24.0977 16.0625 24.0977C16.3724 24.0977 16.6436 24.0384 16.876 23.9199C17.1084 23.8014 17.3021 23.6169 17.457 23.3662C17.6165 23.111 17.735 22.7852 17.8125 22.3887C17.89 21.9876 17.9287 21.5091 17.9287 20.9531ZM25.6807 15.0332H25.79V16.1064H25.6807C25.0107 16.1064 24.4502 16.2158 23.999 16.4346C23.5479 16.6488 23.1901 16.9382 22.9258 17.3027C22.6615 17.6628 22.4701 18.0684 22.3516 18.5195C22.2376 18.9707 22.1807 19.4287 22.1807 19.8936V21.3564C22.1807 21.7985 22.2331 22.1904 22.3379 22.5322C22.4427 22.8695 22.5863 23.1543 22.7686 23.3867C22.9508 23.6191 23.1559 23.7946 23.3838 23.9131C23.6162 24.0316 23.8577 24.0908 24.1084 24.0908C24.4001 24.0908 24.6598 24.0361 24.8877 23.9268C25.1156 23.8128 25.307 23.6556 25.4619 23.4551C25.6214 23.25 25.7422 23.0085 25.8242 22.7305C25.9062 22.4525 25.9473 22.1471 25.9473 21.8145C25.9473 21.5182 25.9108 21.2334 25.8379 20.96C25.765 20.682 25.6533 20.4359 25.5029 20.2217C25.3525 20.0029 25.1634 19.832 24.9355 19.709C24.7122 19.5814 24.4456 19.5176 24.1357 19.5176C23.7848 19.5176 23.4567 19.6042 23.1514 19.7773C22.8506 19.946 22.6022 20.1693 22.4062 20.4473C22.2148 20.7207 22.1055 21.0192 22.0781 21.3428L21.4082 21.3359C21.472 20.8255 21.5905 20.3903 21.7637 20.0303C21.9414 19.6657 22.1602 19.3695 22.4199 19.1416C22.6842 18.9092 22.9782 18.7406 23.3018 18.6357C23.6299 18.5264 23.9762 18.4717 24.3408 18.4717C24.8376 18.4717 25.266 18.5651 25.626 18.752C25.986 18.9388 26.2822 19.1895 26.5146 19.5039C26.7471 19.8138 26.918 20.1647 27.0273 20.5566C27.1413 20.944 27.1982 21.3428 27.1982 21.7529C27.1982 22.2223 27.1322 22.6621 27 23.0723C26.8678 23.4824 26.6696 23.8424 26.4053 24.1523C26.1455 24.4622 25.8242 24.7038 25.4414 24.877C25.0586 25.0501 24.6143 25.1367 24.1084 25.1367C23.5706 25.1367 23.1012 25.0273 22.7002 24.8086C22.2992 24.5853 21.9665 24.2891 21.7021 23.9199C21.4378 23.5508 21.2396 23.1406 21.1074 22.6895C20.9753 22.2383 20.9092 21.7803 20.9092 21.3154V20.7207C20.9092 20.0189 20.9798 19.3307 21.1211 18.6562C21.2624 17.9818 21.5062 17.3711 21.8525 16.8242C22.2035 16.2773 22.6888 15.8421 23.3086 15.5186C23.9284 15.195 24.7191 15.0332 25.6807 15.0332Z" fill="#164551"/>
</svg>
