<svg width="40" height="40" viewBox="0 0 40 40" fill="none" xmlns="http://www.w3.org/2000/svg">
<rect x="1" y="1" width="38" height="38" rx="19" stroke="#14788A" stroke-width="2"/>
<path d="M19.2002 19.2305V20.748C19.2002 21.5638 19.1273 22.252 18.9814 22.8125C18.8356 23.373 18.626 23.8242 18.3525 24.166C18.0791 24.5078 17.7487 24.7562 17.3613 24.9111C16.9785 25.0615 16.5456 25.1367 16.0625 25.1367C15.6797 25.1367 15.3265 25.0889 15.0029 24.9932C14.6794 24.8975 14.3877 24.7448 14.1279 24.5352C13.8727 24.321 13.654 24.043 13.4717 23.7012C13.2894 23.3594 13.1504 22.9447 13.0547 22.457C12.959 21.9694 12.9111 21.3997 12.9111 20.748V19.2305C12.9111 18.4147 12.984 17.7311 13.1299 17.1797C13.2803 16.6283 13.4922 16.1862 13.7656 15.8535C14.0391 15.5163 14.3672 15.2747 14.75 15.1289C15.1374 14.9831 15.5703 14.9102 16.0488 14.9102C16.4362 14.9102 16.7917 14.958 17.1152 15.0537C17.4434 15.1449 17.735 15.293 17.9902 15.498C18.2454 15.6986 18.4619 15.9674 18.6396 16.3047C18.8219 16.6374 18.9609 17.0452 19.0566 17.5283C19.1523 18.0114 19.2002 18.5788 19.2002 19.2305ZM17.9287 20.9531V19.0186C17.9287 18.5719 17.9014 18.18 17.8467 17.8428C17.7965 17.501 17.7214 17.2093 17.6211 16.9678C17.5208 16.7262 17.3932 16.5303 17.2383 16.3799C17.0879 16.2295 16.9124 16.1201 16.7119 16.0518C16.516 15.9788 16.2949 15.9424 16.0488 15.9424C15.748 15.9424 15.4814 15.9993 15.249 16.1133C15.0166 16.2227 14.8206 16.3981 14.6611 16.6396C14.5062 16.8812 14.3877 17.1979 14.3057 17.5898C14.2236 17.9818 14.1826 18.458 14.1826 19.0186V20.9531C14.1826 21.3997 14.2077 21.7939 14.2578 22.1357C14.3125 22.4775 14.3923 22.7738 14.4971 23.0244C14.6019 23.2705 14.7295 23.4733 14.8799 23.6328C15.0303 23.7923 15.2035 23.9108 15.3994 23.9883C15.5999 24.0612 15.821 24.0977 16.0625 24.0977C16.3724 24.0977 16.6436 24.0384 16.876 23.9199C17.1084 23.8014 17.3021 23.6169 17.457 23.3662C17.6165 23.111 17.735 22.7852 17.8125 22.3887C17.89 21.9876 17.9287 21.5091 17.9287 20.9531ZM22.6729 19.4014H23.5752C24.0173 19.4014 24.3818 19.3285 24.6689 19.1826C24.9606 19.0322 25.1771 18.8294 25.3184 18.5742C25.4642 18.3145 25.5371 18.0228 25.5371 17.6992C25.5371 17.3164 25.4733 16.9951 25.3457 16.7354C25.2181 16.4756 25.0267 16.2796 24.7715 16.1475C24.5163 16.0153 24.1927 15.9492 23.8008 15.9492C23.4453 15.9492 23.1309 16.0199 22.8574 16.1611C22.5885 16.2979 22.3766 16.4938 22.2217 16.749C22.0713 17.0042 21.9961 17.305 21.9961 17.6514H20.7314C20.7314 17.1455 20.859 16.6852 21.1143 16.2705C21.3695 15.8558 21.7272 15.5254 22.1875 15.2793C22.6523 15.0332 23.1901 14.9102 23.8008 14.9102C24.4023 14.9102 24.9287 15.0173 25.3799 15.2314C25.8311 15.4411 26.182 15.7555 26.4326 16.1748C26.6833 16.5895 26.8086 17.1068 26.8086 17.7266C26.8086 17.9772 26.7493 18.2461 26.6309 18.5332C26.5169 18.8158 26.3369 19.0801 26.0908 19.3262C25.8493 19.5723 25.5348 19.7751 25.1475 19.9346C24.7601 20.0895 24.2952 20.167 23.7529 20.167H22.6729V19.4014ZM22.6729 20.4404V19.6816H23.7529C24.3864 19.6816 24.9105 19.7568 25.3252 19.9072C25.7399 20.0576 26.0658 20.2581 26.3027 20.5088C26.5443 20.7594 26.7129 21.0352 26.8086 21.3359C26.9089 21.6322 26.959 21.9284 26.959 22.2246C26.959 22.6895 26.8792 23.1019 26.7197 23.4619C26.5648 23.8219 26.3438 24.1273 26.0566 24.3779C25.7741 24.6286 25.4414 24.8177 25.0586 24.9453C24.6758 25.0729 24.2588 25.1367 23.8076 25.1367C23.3747 25.1367 22.9668 25.0752 22.584 24.9521C22.2057 24.8291 21.8708 24.6514 21.5791 24.4189C21.2874 24.182 21.0596 23.8926 20.8955 23.5508C20.7314 23.2044 20.6494 22.8102 20.6494 22.3682H21.9141C21.9141 22.7145 21.9893 23.0176 22.1396 23.2773C22.2946 23.5371 22.5133 23.7399 22.7959 23.8857C23.083 24.027 23.4202 24.0977 23.8076 24.0977C24.195 24.0977 24.5277 24.0316 24.8057 23.8994C25.0882 23.7627 25.3047 23.5576 25.4551 23.2842C25.61 23.0107 25.6875 22.6667 25.6875 22.252C25.6875 21.8372 25.6009 21.4977 25.4277 21.2334C25.2546 20.9645 25.0085 20.7663 24.6895 20.6387C24.375 20.5065 24.0036 20.4404 23.5752 20.4404H22.6729Z" fill="#164551"/>
</svg>
