<svg width="20" height="20" viewBox="0 0 20 20" fill="none" xmlns="http://www.w3.org/2000/svg">
<g id="exclamation">
<path id="Vector" d="M11.3079 3.34399L11.308 3.34423L16.888 13.2641C16.888 13.2642 16.888 13.2642 16.888 13.2642C17.4507 14.2651 16.7282 15.4991 15.5818 15.4991H4.42083C3.27323 15.4991 2.55104 14.2649 3.11366 13.2641L8.69361 3.34423C9.26759 2.32384 10.7351 2.32436 11.3079 3.34399ZM11.0615 14.0608C11.3428 13.7795 11.5008 13.3979 11.5008 13.0001C11.5008 12.6023 11.3428 12.2207 11.0615 11.9394C10.7802 11.6581 10.3986 11.5001 10.0008 11.5001C9.603 11.5001 9.22147 11.6581 8.94017 11.9394C8.65886 12.2207 8.50082 12.6023 8.50082 13.0001C8.50082 13.3979 8.65886 13.7795 8.94017 14.0608C9.22147 14.3421 9.603 14.5001 10.0008 14.5001C10.3986 14.5001 10.7802 14.3421 11.0615 14.0608ZM10.0008 4.5001C9.603 4.5001 9.22147 4.65814 8.94016 4.93944C8.65886 5.22075 8.50082 5.60228 8.50082 6.0001V9.0001C8.50082 9.39793 8.65886 9.77946 8.94017 10.0608C9.22147 10.3421 9.603 10.5001 10.0008 10.5001C10.3986 10.5001 10.7802 10.3421 11.0615 10.0608C11.3428 9.77946 11.5008 9.39793 11.5008 9.0001V6.0001C11.5008 5.60228 11.3428 5.22075 11.0615 4.93944C10.7802 4.65814 10.3986 4.5001 10.0008 4.5001Z" fill="#D7751F" stroke="#D7751F"/>
</g>
</svg>
