<svg width="20" height="20" viewBox="0 0 20 20" fill="none" xmlns="http://www.w3.org/2000/svg">
<g id="fire">
<path id="Vector" fill-rule="evenodd" clip-rule="evenodd" d="M11.757 2.03375C12.034 2.10675 12.266 2.29573 12.395 2.55273C12.878 3.51973 13.239 4.10676 13.602 4.58276C13.97 5.06476 14.358 5.45874 14.95 6.04974C16.316 7.41674 17 9.20975 17 10.9997C17 12.7897 16.316 14.5828 14.95 15.9498C12.216 18.6828 7.784 18.6828 5.05 15.9498C3.684 14.5828 3 12.7897 3 10.9997C3 9.20975 3.684 7.41674 5.05 6.04974C5.336 5.76374 5.766 5.67873 6.14 5.83373C6.514 5.98773 6.757 6.35277 6.757 6.75677C6.757 7.87677 6.827 8.72976 7.155 9.41076C7.335 9.78476 7.61601 10.1508 8.10001 10.4778C8.21601 9.41678 8.428 8.12376 8.714 6.89776C8.939 5.93176 9.21899 4.96775 9.55299 4.16375C9.71999 3.76075 9.909 3.37872 10.123 3.04772C10.331 2.72572 10.599 2.39878 10.945 2.16778C11.184 2.00878 11.48 1.95975 11.757 2.03375ZM12.121 15.1207C10.95 16.2927 9.05 16.2927 7.879 15.1207C7.293 14.5357 7 13.7677 7 12.9997C7 12.9997 7.879 13.4997 9.5 13.4997C9.5 12.4997 10 9.49975 10.75 8.99975C11.25 9.99975 11.536 10.2928 12.121 10.8788C12.707 11.4638 13 12.2317 13 12.9997C13 13.7677 12.707 14.5357 12.121 15.1207Z" fill="white"/>
</g>
</svg>
