<svg width="39" height="39" viewBox="0 0 39 39" fill="none" xmlns="http://www.w3.org/2000/svg">
<path d="M22.3997 26.0374C20.029 22.9873 19.7557 19.2335 21.7891 17.6531C23.8225 16.0727 27.3926 17.2641 29.7633 20.3142C32.1339 23.3643 34.0557 25.8369 30.3739 28.6985C26.6921 31.5601 24.7703 29.0875 22.3997 26.0374Z" fill="url(#paint0_linear_1002_32068)"/>
<path d="M22.7678 25.7512C21.6311 24.2887 21.0109 22.6737 20.9079 21.2602C20.8047 19.8429 21.2199 18.686 22.0752 18.0213C22.9305 17.3565 24.1541 17.2397 25.5021 17.6895C26.8464 18.1381 28.2584 19.1379 29.3951 20.6004C29.9908 21.3668 30.542 22.0766 30.9849 22.7617C31.4281 23.4473 31.7434 24.0796 31.8841 24.683C32.0221 25.2748 31.9936 25.843 31.7384 26.4221C31.4789 27.0108 30.9699 27.6447 30.0877 28.3303C29.2055 29.016 28.4656 29.3528 27.8311 29.459C27.2069 29.5634 26.6492 29.4508 26.1098 29.1709C25.5598 28.8856 25.0249 28.424 24.4699 27.8254C23.9153 27.2271 23.3636 26.5177 22.7678 25.7512Z" stroke="#DE6B00" stroke-opacity="0.3" stroke-width="0.932619"/>
<path d="M10.2625 19.7373C12.9941 17.0057 16.6847 16.2676 18.5057 18.0886C20.3268 19.9097 19.5887 23.6003 16.8571 26.3319C14.1255 29.0635 11.9111 31.2778 8.61383 27.9805C5.31652 24.6832 7.5309 22.4688 10.2625 19.7373Z" fill="url(#paint1_linear_1002_32068)"/>
<path d="M10.5922 20.067C11.902 18.7572 13.4274 17.9409 14.817 17.663C16.2105 17.3843 17.41 17.6524 18.176 18.4183C18.942 19.1843 19.2101 20.3839 18.9314 21.7773C18.6535 23.167 17.8371 24.6924 16.5274 26.0021C15.8409 26.6886 15.2052 27.3238 14.5805 27.8485C13.9554 28.3734 13.3672 28.7649 12.786 28.9796C12.216 29.1902 11.6486 29.2326 11.0423 29.0513C10.4259 28.8671 9.73364 28.4409 8.94356 27.6508C8.15347 26.8607 7.72727 26.1685 7.54303 25.5521C7.3618 24.9457 7.40417 24.3784 7.61474 23.8083C7.82943 23.2271 8.22094 22.6389 8.7459 22.0139C9.27057 21.3891 9.90578 20.7534 10.5922 20.067Z" stroke="#DE6B00" stroke-opacity="0.3" stroke-width="0.932619"/>
<path d="M29.2483 13.8086C26.5167 16.5402 22.8261 17.2783 21.005 15.4573C19.1839 13.6362 19.9221 9.9456 22.6537 7.21402C25.3852 4.48245 27.5996 2.26807 30.8969 5.56537C34.1942 8.86268 31.9798 11.0771 29.2483 13.8086Z" fill="url(#paint2_linear_1002_32068)"/>
<path d="M28.9185 13.4789C27.6088 14.7887 26.0834 15.605 24.6937 15.8829C23.3002 16.1616 22.1007 15.8935 21.3347 15.1276C20.5688 14.3616 20.3006 13.162 20.5793 11.7686C20.8573 10.3789 21.6736 8.85353 22.9834 7.54376C23.6698 6.85732 24.3055 6.22212 24.9302 5.69744C25.5553 5.17249 26.1435 4.78098 26.7247 4.56629C27.2948 4.35572 27.8621 4.31334 28.4684 4.49457C29.0848 4.67882 29.7771 5.10502 30.5672 5.8951C31.3573 6.68519 31.7835 7.37745 31.9677 7.99385C32.1489 8.60017 32.1066 9.16753 31.896 9.73757C31.6813 10.3188 31.2898 10.907 30.7648 11.532C30.2402 12.1568 29.605 12.7925 28.9185 13.4789Z" stroke="#DE6B00" stroke-opacity="0.3" stroke-width="0.932619"/>
<path d="M17.1246 7.21365C19.8561 9.94523 20.5943 13.6359 18.7732 15.4569C16.9522 17.278 13.2615 16.5398 10.5299 13.8083C7.79836 11.0767 5.58398 8.8623 8.88129 5.565C12.1786 2.26769 14.393 4.48208 17.1246 7.21365Z" fill="url(#paint3_linear_1002_32068)"/>
<path d="M16.7948 7.54338C18.1046 8.85316 18.9209 10.3785 19.1989 11.7682C19.4776 13.1617 19.2095 14.3612 18.4435 15.1272C17.6775 15.8932 16.478 16.1613 15.0845 15.8826C13.6948 15.6046 12.1694 14.7883 10.8597 13.4785C10.1732 12.7921 9.53804 12.1564 9.01336 11.5317C8.48841 10.9066 8.09689 10.3184 7.8822 9.7372C7.67163 9.16716 7.62926 8.5998 7.81049 7.99347C7.99473 7.37707 8.42094 6.68481 9.21102 5.89473C10.0011 5.10465 10.6934 4.67844 11.3098 4.4942C11.9161 4.31297 12.4835 4.35534 13.0535 4.56591C13.6347 4.7806 14.2229 5.17212 14.848 5.69707C15.4727 6.22175 16.1084 6.85695 16.7948 7.54338Z" stroke="#DE6B00" stroke-opacity="0.3" stroke-width="0.932619"/>
<g filter="url(#filter0_d_1002_32068)">
<path d="M24.2354 7.39699C24.2354 11.26 22.1476 14.3916 19.5723 14.3916C16.9969 14.3916 14.9092 11.26 14.9092 7.39699C14.9092 3.53395 14.9092 0.402344 19.5723 0.402344C24.2354 0.402344 24.2354 3.53395 24.2354 7.39699Z" fill="url(#paint4_linear_1002_32068)"/>
<path d="M23.7691 7.39699C23.7691 9.24928 23.2677 10.9051 22.4816 12.0843C21.6933 13.2667 20.6555 13.9253 19.5723 13.9253C18.489 13.9253 17.4512 13.2667 16.663 12.0843C15.8769 10.9051 15.3755 9.24928 15.3755 7.39699C15.3755 6.42622 15.3758 5.52757 15.4466 4.7148C15.5174 3.9016 15.6565 3.20884 15.9156 2.64607C16.1698 2.0941 16.541 1.66295 17.0979 1.36237C17.6641 1.05678 18.4549 0.868653 19.5723 0.868653C20.6896 0.868653 21.4805 1.05678 22.0466 1.36237C22.6035 1.66295 22.9747 2.0941 23.2289 2.64607C23.4881 3.20884 23.6272 3.9016 23.698 4.7148C23.7687 5.52757 23.7691 6.42622 23.7691 7.39699Z" stroke="#DE6B00" stroke-opacity="0.3" stroke-width="0.932619"/>
</g>
<g filter="url(#filter1_d_1002_32068)">
<path d="M28.4321 20.9199C24.5691 20.9199 21.4375 18.8322 21.4375 16.2568C21.4375 13.6815 24.5691 11.5938 28.4321 11.5938C32.2952 11.5938 35.4268 11.5938 35.4268 16.2568C35.4268 20.9199 32.2952 20.9199 28.4321 20.9199Z" fill="url(#paint5_linear_1002_32068)"/>
<path d="M28.4321 20.4536C26.5798 20.4536 24.924 19.9523 23.7448 19.1662C22.5624 18.3779 21.9038 17.3401 21.9038 16.2568C21.9038 15.1736 22.5624 14.1358 23.7448 13.3475C24.924 12.5614 26.5798 12.0601 28.4321 12.0601C29.4029 12.0601 30.3015 12.0604 31.1143 12.1312C31.9275 12.202 32.6203 12.341 33.183 12.6002C33.735 12.8544 34.1661 13.2256 34.4667 13.7825C34.7723 14.3486 34.9604 15.1395 34.9604 16.2568C34.9604 17.3742 34.7723 18.1651 34.4667 18.7312C34.1661 19.2881 33.735 19.6593 33.183 19.9135C32.6203 20.1726 31.9275 20.3117 31.1143 20.3825C30.3015 20.4533 29.4029 20.4536 28.4321 20.4536Z" stroke="#DE6B00" stroke-opacity="0.3" stroke-width="0.932619"/>
</g>
<g filter="url(#filter2_d_1002_32068)">
<path d="M14.9092 25.1172C14.9092 21.2541 16.9969 18.1225 19.5723 18.1225C22.1476 18.1225 24.2354 21.2541 24.2354 25.1172C24.2354 28.9802 24.2354 32.1118 19.5723 32.1118C14.9092 32.1118 14.9092 28.9802 14.9092 25.1172Z" fill="url(#paint6_linear_1002_32068)"/>
<path d="M15.3755 25.1172C15.3755 23.2649 15.8768 21.609 16.6629 20.4299C17.4512 19.2475 18.489 18.5888 19.5723 18.5888C20.6555 18.5888 21.6933 19.2475 22.4816 20.4299C23.2677 21.609 23.769 23.2649 23.769 25.1172C23.769 26.0879 23.7687 26.9866 23.6979 27.7994C23.6271 28.6126 23.4881 29.3053 23.2289 29.8681C22.9747 30.4201 22.6035 30.8512 22.0466 31.1518C21.4805 31.4574 20.6896 31.6455 19.5723 31.6455C18.4549 31.6455 17.664 31.4574 17.0979 31.1518C16.541 30.8512 16.1698 30.4201 15.9156 29.8681C15.6565 29.3053 15.5174 28.6126 15.4466 27.7994C15.3758 26.9866 15.3755 26.0879 15.3755 25.1172Z" stroke="#DE6B00" stroke-opacity="0.3" stroke-width="0.932619"/>
</g>
<g filter="url(#filter3_d_1002_32068)">
<path d="M10.7124 11.5942C14.5755 11.5942 17.7071 13.682 17.7071 16.2573C17.7071 18.8327 14.5754 20.9204 10.7124 20.9204C6.84938 20.9204 3.71777 20.9204 3.71777 16.2573C3.71777 11.5942 6.84938 11.5942 10.7124 11.5942Z" fill="url(#paint7_linear_1002_32068)"/>
<path d="M10.7124 12.0605C12.5647 12.0605 14.2206 12.5619 15.3997 13.348C16.5821 14.1363 17.2407 15.1741 17.2407 16.2573C17.2407 17.3406 16.5821 18.3784 15.3997 19.1666C14.2206 19.9527 12.5647 20.4541 10.7124 20.4541C9.74165 20.4541 8.843 20.4538 8.03023 20.383C7.21703 20.3122 6.52427 20.1731 5.9615 19.914C5.40953 19.6598 4.97838 19.2886 4.6778 18.7317C4.37221 18.1655 4.18408 17.3747 4.18408 16.2573C4.18408 15.14 4.37222 14.3491 4.6778 13.783C4.97838 13.2261 5.40953 12.8548 5.9615 12.6007C6.52428 12.3415 7.21703 12.2024 8.03023 12.1316C8.843 12.0609 9.74165 12.0605 10.7124 12.0605Z" stroke="#DE6B00" stroke-opacity="0.3" stroke-width="0.932619"/>
</g>
<path d="M29.578 6.22449C26.6104 3.91633 24.3024 7.54345 22.9834 8.86236" stroke="url(#paint8_linear_1002_32068)" stroke-width="0.896354" stroke-linecap="round"/>
<path d="M10.1251 6.95691C13.0927 4.64875 15.4008 8.27587 16.7197 9.59479" stroke="url(#paint9_linear_1002_32068)" stroke-width="0.896354" stroke-linecap="round"/>
<path d="M18.9065 2.80029C16.0051 2.80029 16.5083 7.59662 17.3077 9.19539" stroke="url(#paint10_linear_1002_32068)" stroke-width="0.896354" stroke-linecap="round"/>
<path d="M34.0273 15.7901C33.561 12.0596 29.3642 12.9923 27.499 12.9923" stroke="url(#paint11_linear_1002_32068)" stroke-width="0.896354" stroke-linecap="round"/>
<path d="M19.6768 30.2466C15.9463 29.7803 16.879 25.5835 16.879 23.7182" stroke="url(#paint12_linear_1002_32068)" stroke-width="0.896354" stroke-linecap="round"/>
<path d="M5.58398 16.3609C6.05029 12.6304 10.2471 13.5631 12.1123 13.5631" stroke="url(#paint13_linear_1002_32068)" stroke-width="0.896354" stroke-linecap="round"/>
<g filter="url(#filter4_d_1002_32068)">
<path d="M19.4277 11.7191C19.6043 11.6394 19.8067 11.6394 19.9834 11.7191C20.1155 11.7787 20.2633 11.7942 20.4049 11.7634C20.5943 11.7222 20.7922 11.7642 20.9484 11.8789C21.0653 11.9647 21.2066 12.0106 21.3516 12.0099C21.5453 12.0089 21.7302 12.0913 21.8592 12.2359C21.9557 12.3441 22.0844 12.4184 22.2263 12.4478C22.416 12.4872 22.5798 12.6062 22.6758 12.7745C22.7477 12.9003 22.8581 12.9998 22.9908 13.0581C23.1683 13.136 23.3037 13.2864 23.3627 13.471C23.4068 13.6091 23.4941 13.7293 23.6118 13.8139C23.7691 13.9271 23.8703 14.1024 23.8896 14.2952C23.9041 14.4394 23.9645 14.5752 24.062 14.6824C24.1924 14.8258 24.2549 15.0183 24.2338 15.2109C24.2179 15.355 24.2488 15.5003 24.3219 15.6255C24.4196 15.7929 24.4407 15.9941 24.38 16.1781C24.3345 16.3158 24.3345 16.4644 24.38 16.602C24.4407 16.786 24.4196 16.9873 24.3219 17.1547C24.2488 17.2798 24.2179 17.4252 24.2338 17.5693C24.2549 17.7619 24.1924 17.9544 24.062 18.0977C23.9645 18.205 23.9041 18.3407 23.8896 18.485C23.8703 18.6778 23.7691 18.853 23.6118 18.9662C23.4941 19.0508 23.4068 19.171 23.3627 19.3091C23.3037 19.4937 23.1683 19.6441 22.9908 19.7221C22.8581 19.7804 22.7477 19.8798 22.6758 20.0057C22.5798 20.174 22.416 20.2929 22.2263 20.3323C22.0844 20.3618 21.9557 20.4361 21.8592 20.5442C21.7302 20.6889 21.5453 20.7712 21.3516 20.7703C21.2066 20.7696 21.0653 20.8155 20.9484 20.9012C20.7922 21.0159 20.5943 21.058 20.4049 21.0168C20.2633 20.986 20.1155 21.0015 19.9834 21.0611C19.8067 21.1408 19.6043 21.1408 19.4277 21.0611C19.2955 21.0015 19.1477 20.986 19.0061 21.0168C18.8168 21.058 18.6188 21.0159 18.4626 20.9012C18.3457 20.8155 18.2044 20.7696 18.0595 20.7703C17.8657 20.7712 17.6808 20.6889 17.5518 20.5442C17.4553 20.4361 17.3267 20.3618 17.1847 20.3323C16.995 20.2929 16.8313 20.174 16.7352 20.0057C16.6633 19.8798 16.5529 19.7804 16.4202 19.7221C16.2428 19.6441 16.1073 19.4937 16.0484 19.3091C16.0042 19.171 15.9169 19.0508 15.7992 18.9662C15.6419 18.853 15.5407 18.6778 15.5214 18.485C15.5069 18.3407 15.4465 18.205 15.349 18.0977C15.2186 17.9544 15.1561 17.7619 15.1773 17.5693C15.1931 17.4252 15.1622 17.2798 15.0891 17.1547C14.9914 16.9873 14.9703 16.786 15.031 16.602C15.0765 16.4644 15.0765 16.3158 15.031 16.1781C14.9703 15.9941 14.9914 15.7929 15.0891 15.6255C15.1622 15.5003 15.1931 15.355 15.1773 15.2109C15.1561 15.0183 15.2186 14.8258 15.349 14.6824C15.4465 14.5752 15.5069 14.4394 15.5214 14.2952C15.5407 14.1024 15.6419 13.9271 15.7992 13.8139C15.9169 13.7293 16.0042 13.6091 16.0484 13.471C16.1073 13.2864 16.2428 13.136 16.4202 13.0581C16.5529 12.9998 16.6633 12.9003 16.7352 12.7745C16.8313 12.6062 16.995 12.4872 17.1847 12.4478C17.3267 12.4184 17.4553 12.3441 17.5518 12.2359C17.6808 12.0913 17.8657 12.0089 18.0595 12.0099C18.2044 12.0106 18.3457 11.9647 18.4626 11.8789C18.6188 11.7642 18.8168 11.7222 19.0061 11.7634C19.1477 11.7942 19.2955 11.7787 19.4277 11.7191Z" fill="url(#paint14_radial_1002_32068)"/>
<path d="M19.4277 11.7191C19.6043 11.6394 19.8067 11.6394 19.9834 11.7191C20.1155 11.7787 20.2633 11.7942 20.4049 11.7634C20.5943 11.7222 20.7922 11.7642 20.9484 11.8789C21.0653 11.9647 21.2066 12.0106 21.3516 12.0099C21.5453 12.0089 21.7302 12.0913 21.8592 12.2359C21.9557 12.3441 22.0844 12.4184 22.2263 12.4478C22.416 12.4872 22.5798 12.6062 22.6758 12.7745C22.7477 12.9003 22.8581 12.9998 22.9908 13.0581C23.1683 13.136 23.3037 13.2864 23.3627 13.471C23.4068 13.6091 23.4941 13.7293 23.6118 13.8139C23.7691 13.9271 23.8703 14.1024 23.8896 14.2952C23.9041 14.4394 23.9645 14.5752 24.062 14.6824C24.1924 14.8258 24.2549 15.0183 24.2338 15.2109C24.2179 15.355 24.2488 15.5003 24.3219 15.6255C24.4196 15.7929 24.4407 15.9941 24.38 16.1781C24.3345 16.3158 24.3345 16.4644 24.38 16.602C24.4407 16.786 24.4196 16.9873 24.3219 17.1547C24.2488 17.2798 24.2179 17.4252 24.2338 17.5693C24.2549 17.7619 24.1924 17.9544 24.062 18.0977C23.9645 18.205 23.9041 18.3407 23.8896 18.485C23.8703 18.6778 23.7691 18.853 23.6118 18.9662C23.4941 19.0508 23.4068 19.171 23.3627 19.3091C23.3037 19.4937 23.1683 19.6441 22.9908 19.7221C22.8581 19.7804 22.7477 19.8798 22.6758 20.0057C22.5798 20.174 22.416 20.2929 22.2263 20.3323C22.0844 20.3618 21.9557 20.4361 21.8592 20.5442C21.7302 20.6889 21.5453 20.7712 21.3516 20.7703C21.2066 20.7696 21.0653 20.8155 20.9484 20.9012C20.7922 21.0159 20.5943 21.058 20.4049 21.0168C20.2633 20.986 20.1155 21.0015 19.9834 21.0611C19.8067 21.1408 19.6043 21.1408 19.4277 21.0611C19.2955 21.0015 19.1477 20.986 19.0061 21.0168C18.8168 21.058 18.6188 21.0159 18.4626 20.9012C18.3457 20.8155 18.2044 20.7696 18.0595 20.7703C17.8657 20.7712 17.6808 20.6889 17.5518 20.5442C17.4553 20.4361 17.3267 20.3618 17.1847 20.3323C16.995 20.2929 16.8313 20.174 16.7352 20.0057C16.6633 19.8798 16.5529 19.7804 16.4202 19.7221C16.2428 19.6441 16.1073 19.4937 16.0484 19.3091C16.0042 19.171 15.9169 19.0508 15.7992 18.9662C15.6419 18.853 15.5407 18.6778 15.5214 18.485C15.5069 18.3407 15.4465 18.205 15.349 18.0977C15.2186 17.9544 15.1561 17.7619 15.1773 17.5693C15.1931 17.4252 15.1622 17.2798 15.0891 17.1547C14.9914 16.9873 14.9703 16.786 15.031 16.602C15.0765 16.4644 15.0765 16.3158 15.031 16.1781C14.9703 15.9941 14.9914 15.7929 15.0891 15.6255C15.1622 15.5003 15.1931 15.355 15.1773 15.2109C15.1561 15.0183 15.2186 14.8258 15.349 14.6824C15.4465 14.5752 15.5069 14.4394 15.5214 14.2952C15.5407 14.1024 15.6419 13.9271 15.7992 13.8139C15.9169 13.7293 16.0042 13.6091 16.0484 13.471C16.1073 13.2864 16.2428 13.136 16.4202 13.0581C16.5529 12.9998 16.6633 12.9003 16.7352 12.7745C16.8313 12.6062 16.995 12.4872 17.1847 12.4478C17.3267 12.4184 17.4553 12.3441 17.5518 12.2359C17.6808 12.0913 17.8657 12.0089 18.0595 12.0099C18.2044 12.0106 18.3457 11.9647 18.4626 11.8789C18.6188 11.7642 18.8168 11.7222 19.0061 11.7634C19.1477 11.7942 19.2955 11.7787 19.4277 11.7191Z" stroke="#876000" stroke-width="0.959265"/>
</g>
<path d="M19.7059 13.9917C16.8045 13.9917 16.5083 17.1892 17.3077 17.9886" stroke="url(#paint15_linear_1002_32068)" stroke-width="0.896354" stroke-linecap="round"/>
<defs>
<filter id="filter0_d_1002_32068" x="11.7116" y="0.402344" width="15.7213" height="20.3844" filterUnits="userSpaceOnUse" color-interpolation-filters="sRGB">
<feFlood flood-opacity="0" result="BackgroundImageFix"/>
<feColorMatrix in="SourceAlpha" type="matrix" values="0 0 0 0 0 0 0 0 0 0 0 0 0 0 0 0 0 0 127 0" result="hardAlpha"/>
<feOffset dy="3.19755"/>
<feGaussianBlur stdDeviation="1.59878"/>
<feComposite in2="hardAlpha" operator="out"/>
<feColorMatrix type="matrix" values="0 0 0 0 0 0 0 0 0 0 0 0 0 0 0 0 0 0 0.05 0"/>
<feBlend mode="normal" in2="BackgroundImageFix" result="effect1_dropShadow_1002_32068"/>
<feBlend mode="normal" in="SourceGraphic" in2="effect1_dropShadow_1002_32068" result="shape"/>
</filter>
<filter id="filter1_d_1002_32068" x="18.2399" y="11.5938" width="20.3844" height="15.7213" filterUnits="userSpaceOnUse" color-interpolation-filters="sRGB">
<feFlood flood-opacity="0" result="BackgroundImageFix"/>
<feColorMatrix in="SourceAlpha" type="matrix" values="0 0 0 0 0 0 0 0 0 0 0 0 0 0 0 0 0 0 127 0" result="hardAlpha"/>
<feOffset dy="3.19755"/>
<feGaussianBlur stdDeviation="1.59878"/>
<feComposite in2="hardAlpha" operator="out"/>
<feColorMatrix type="matrix" values="0 0 0 0 0 0 0 0 0 0 0 0 0 0 0 0 0 0 0.05 0"/>
<feBlend mode="normal" in2="BackgroundImageFix" result="effect1_dropShadow_1002_32068"/>
<feBlend mode="normal" in="SourceGraphic" in2="effect1_dropShadow_1002_32068" result="shape"/>
</filter>
<filter id="filter2_d_1002_32068" x="11.7116" y="18.1226" width="15.7213" height="20.3844" filterUnits="userSpaceOnUse" color-interpolation-filters="sRGB">
<feFlood flood-opacity="0" result="BackgroundImageFix"/>
<feColorMatrix in="SourceAlpha" type="matrix" values="0 0 0 0 0 0 0 0 0 0 0 0 0 0 0 0 0 0 127 0" result="hardAlpha"/>
<feOffset dy="3.19755"/>
<feGaussianBlur stdDeviation="1.59878"/>
<feComposite in2="hardAlpha" operator="out"/>
<feColorMatrix type="matrix" values="0 0 0 0 0 0 0 0 0 0 0 0 0 0 0 0 0 0 0.05 0"/>
<feBlend mode="normal" in2="BackgroundImageFix" result="effect1_dropShadow_1002_32068"/>
<feBlend mode="normal" in="SourceGraphic" in2="effect1_dropShadow_1002_32068" result="shape"/>
</filter>
<filter id="filter3_d_1002_32068" x="0.520223" y="11.5942" width="20.3844" height="15.7213" filterUnits="userSpaceOnUse" color-interpolation-filters="sRGB">
<feFlood flood-opacity="0" result="BackgroundImageFix"/>
<feColorMatrix in="SourceAlpha" type="matrix" values="0 0 0 0 0 0 0 0 0 0 0 0 0 0 0 0 0 0 127 0" result="hardAlpha"/>
<feOffset dy="3.19755"/>
<feGaussianBlur stdDeviation="1.59878"/>
<feComposite in2="hardAlpha" operator="out"/>
<feColorMatrix type="matrix" values="0 0 0 0 0 0 0 0 0 0 0 0 0 0 0 0 0 0 0.05 0"/>
<feBlend mode="normal" in2="BackgroundImageFix" result="effect1_dropShadow_1002_32068"/>
<feBlend mode="normal" in="SourceGraphic" in2="effect1_dropShadow_1002_32068" result="shape"/>
</filter>
<filter id="filter4_d_1002_32068" x="11.32" y="11.1797" width="16.7711" height="16.816" filterUnits="userSpaceOnUse" color-interpolation-filters="sRGB">
<feFlood flood-opacity="0" result="BackgroundImageFix"/>
<feColorMatrix in="SourceAlpha" type="matrix" values="0 0 0 0 0 0 0 0 0 0 0 0 0 0 0 0 0 0 127 0" result="hardAlpha"/>
<feOffset dy="3.19755"/>
<feGaussianBlur stdDeviation="1.59878"/>
<feComposite in2="hardAlpha" operator="out"/>
<feColorMatrix type="matrix" values="0 0 0 0 0 0 0 0 0 0 0 0 0 0 0 0 0 0 0.05 0"/>
<feBlend mode="normal" in2="BackgroundImageFix" result="effect1_dropShadow_1002_32068"/>
<feBlend mode="normal" in="SourceGraphic" in2="effect1_dropShadow_1002_32068" result="shape"/>
</filter>
<linearGradient id="paint0_linear_1002_32068" x1="30.3739" y1="28.6985" x2="21.7891" y2="17.6531" gradientUnits="userSpaceOnUse">
<stop stop-color="#FEC020"/>
<stop offset="1" stop-color="#FFF56B"/>
</linearGradient>
<linearGradient id="paint1_linear_1002_32068" x1="8.61383" y1="27.9805" x2="18.5057" y2="18.0886" gradientUnits="userSpaceOnUse">
<stop stop-color="#FEC020"/>
<stop offset="1" stop-color="#FFF56B"/>
</linearGradient>
<linearGradient id="paint2_linear_1002_32068" x1="30.8969" y1="5.56537" x2="21.005" y2="15.4573" gradientUnits="userSpaceOnUse">
<stop stop-color="#FEC020"/>
<stop offset="1" stop-color="#FFF56B"/>
</linearGradient>
<linearGradient id="paint3_linear_1002_32068" x1="8.88129" y1="5.565" x2="18.7732" y2="15.4569" gradientUnits="userSpaceOnUse">
<stop stop-color="#FEC020"/>
<stop offset="1" stop-color="#FFF56B"/>
</linearGradient>
<linearGradient id="paint4_linear_1002_32068" x1="19.5723" y1="0.402344" x2="19.5723" y2="14.3916" gradientUnits="userSpaceOnUse">
<stop stop-color="#FEC020"/>
<stop offset="1" stop-color="#FFF56B"/>
</linearGradient>
<linearGradient id="paint5_linear_1002_32068" x1="35.4268" y1="16.2568" x2="21.4375" y2="16.2568" gradientUnits="userSpaceOnUse">
<stop stop-color="#FEC020"/>
<stop offset="1" stop-color="#FFF56B"/>
</linearGradient>
<linearGradient id="paint6_linear_1002_32068" x1="19.5723" y1="32.1118" x2="19.5723" y2="18.1225" gradientUnits="userSpaceOnUse">
<stop stop-color="#FEC020"/>
<stop offset="1" stop-color="#FFF56B"/>
</linearGradient>
<linearGradient id="paint7_linear_1002_32068" x1="3.71777" y1="16.2573" x2="17.7071" y2="16.2573" gradientUnits="userSpaceOnUse">
<stop stop-color="#FEC020"/>
<stop offset="1" stop-color="#FFF56B"/>
</linearGradient>
<linearGradient id="paint8_linear_1002_32068" x1="28.0407" y1="5.34667" x2="23.9243" y2="9.46314" gradientUnits="userSpaceOnUse">
<stop stop-color="white" stop-opacity="0.1"/>
<stop offset="0.49" stop-color="white" stop-opacity="0.32"/>
<stop offset="1" stop-color="white" stop-opacity="0"/>
</linearGradient>
<linearGradient id="paint9_linear_1002_32068" x1="11.6624" y1="6.07909" x2="15.7789" y2="10.1956" gradientUnits="userSpaceOnUse">
<stop stop-color="white" stop-opacity="0.1"/>
<stop offset="0.49" stop-color="white" stop-opacity="0.32"/>
<stop offset="1" stop-color="white" stop-opacity="0"/>
</linearGradient>
<linearGradient id="paint10_linear_1002_32068" x1="17.7021" y1="2.46721" x2="17.7021" y2="8.28878" gradientUnits="userSpaceOnUse">
<stop stop-color="white" stop-opacity="0.1"/>
<stop offset="1" stop-color="white" stop-opacity="0.1"/>
</linearGradient>
<linearGradient id="paint11_linear_1002_32068" x1="33.561" y1="14.0824" x2="27.7395" y2="14.0824" gradientUnits="userSpaceOnUse">
<stop stop-color="white" stop-opacity="0.1"/>
<stop offset="1" stop-color="#F2AA67" stop-opacity="0.2"/>
</linearGradient>
<linearGradient id="paint12_linear_1002_32068" x1="17.9691" y1="29.7803" x2="17.9691" y2="23.9587" gradientUnits="userSpaceOnUse">
<stop stop-color="white" stop-opacity="0.1"/>
<stop offset="1" stop-color="#F2AA67" stop-opacity="0.2"/>
</linearGradient>
<linearGradient id="paint13_linear_1002_32068" x1="6.05029" y1="14.6532" x2="11.8719" y2="14.6532" gradientUnits="userSpaceOnUse">
<stop stop-color="white" stop-opacity="0.1"/>
<stop offset="1" stop-color="#F2AA67" stop-opacity="0.2"/>
</linearGradient>
<radialGradient id="paint14_radial_1002_32068" cx="0" cy="0" r="1" gradientUnits="userSpaceOnUse" gradientTransform="translate(19.7055 16.3901) rotate(90) scale(4.79633)">
<stop stop-color="#BA7E23"/>
<stop offset="1" stop-color="#AE770E"/>
</radialGradient>
<linearGradient id="paint15_linear_1002_32068" x1="19.1217" y1="14.458" x2="19.1217" y2="20.2796" gradientUnits="userSpaceOnUse">
<stop stop-color="white" stop-opacity="0.1"/>
<stop offset="1" stop-color="white" stop-opacity="0.1"/>
</linearGradient>
</defs>
</svg>
