<svg width="25" height="25" viewBox="0 0 25 25" fill="none" xmlns="http://www.w3.org/2000/svg">
<g id="information-circle">
<path id="Vector" d="M22 12.5C22 15.0196 20.9991 17.4359 19.2175 19.2175C17.4359 20.9991 15.0196 22 12.5 22C9.98044 22 7.56408 20.9991 5.78249 19.2175C4.00089 17.4359 3 15.0196 3 12.5C3 9.98044 4.00089 7.56408 5.78249 5.78249C7.56408 4.00089 9.98044 3 12.5 3C15.0196 3 17.4359 4.00089 19.2175 5.78249C20.9991 7.56408 22 9.98044 22 12.5ZM13.7374 8.73744C14.0656 8.40925 14.25 7.96413 14.25 7.5C14.25 7.03587 14.0656 6.59075 13.7374 6.26256C13.4092 5.93438 12.9641 5.75 12.5 5.75C12.0359 5.75 11.5908 5.93438 11.2626 6.26256C10.9344 6.59075 10.75 7.03587 10.75 7.5C10.75 7.96413 10.9344 8.40925 11.2626 8.73744C11.5908 9.06563 12.0359 9.25 12.5 9.25C12.9641 9.25 13.4092 9.06563 13.7374 8.73744ZM11.25 10.75C10.7859 10.75 10.3408 10.9344 10.0126 11.2626C9.68437 11.5908 9.5 12.0359 9.5 12.5C9.5 12.9641 9.68437 13.4092 10.0126 13.7374C10.2199 13.9448 10.474 14.0948 10.75 14.1771V17.5C10.75 17.9641 10.9344 18.4092 11.2626 18.7374C11.5908 19.0656 12.0359 19.25 12.5 19.25H13.75C14.2141 19.25 14.6592 19.0656 14.9874 18.7374C15.3156 18.4092 15.5 17.9641 15.5 17.5C15.5 17.0359 15.3156 16.5908 14.9874 16.2626C14.7801 16.0552 14.526 15.9052 14.25 15.8229V12.5C14.25 12.0359 14.0656 11.5908 13.7374 11.2626C13.4092 10.9344 12.9641 10.75 12.5 10.75H11.25Z" fill="#1A6270" stroke="#1A6270"/>
</g>
</svg>
