<svg width="34" height="33" viewBox="0 0 34 33" fill="none" xmlns="http://www.w3.org/2000/svg">
<mask id="mask0_3038_3263" style="mask-type:alpha" maskUnits="userSpaceOnUse" x="0" y="0" width="34" height="33">
<rect x="0.5" width="33" height="33" fill="#D9D9D9"/>
</mask>
<g mask="url(#mask0_3038_3263)">
<path d="M8.75 19.25C7.99375 19.25 7.34658 18.9805 6.8085 18.4415C6.2695 17.9034 6 17.2562 6 16.5C6 15.7437 6.2695 15.0961 6.8085 14.5571C7.34658 14.019 7.99375 13.75 8.75 13.75C9.50625 13.75 10.1534 14.019 10.6915 14.5571C11.2305 15.0961 11.5 15.7437 11.5 16.5C11.5 17.2562 11.2305 17.9034 10.6915 18.4415C10.1534 18.9805 9.50625 19.25 8.75 19.25ZM17 19.25C16.2437 19.25 15.5966 18.9805 15.0585 18.4415C14.5195 17.9034 14.25 17.2562 14.25 16.5C14.25 15.7437 14.5195 15.0961 15.0585 14.5571C15.5966 14.019 16.2437 13.75 17 13.75C17.7563 13.75 18.4039 14.019 18.9429 14.5571C19.481 15.0961 19.75 15.7437 19.75 16.5C19.75 17.2562 19.481 17.9034 18.9429 18.4415C18.4039 18.9805 17.7563 19.25 17 19.25ZM25.25 19.25C24.4937 19.25 23.8461 18.9805 23.3071 18.4415C22.769 17.9034 22.5 17.2562 22.5 16.5C22.5 15.7437 22.769 15.0961 23.3071 14.5571C23.8461 14.019 24.4937 13.75 25.25 13.75C26.0063 13.75 26.6539 14.019 27.1929 14.5571C27.731 15.0961 28 15.7437 28 16.5C28 17.2562 27.731 17.9034 27.1929 18.4415C26.6539 18.9805 26.0063 19.25 25.25 19.25Z" fill="#1C1B1F"/>
</g>
</svg>
