<svg width="37" height="46" viewBox="0 0 37 46" fill="none" xmlns="http://www.w3.org/2000/svg">
<g clip-path="url(#clip0_1002_32035)" filter="url(#filter0_d_1002_32035)">
<path d="M18.6845 6.06592C17.1776 6.60651 17.3257 27.0652 20.3399 37.3364" stroke="url(#paint0_linear_1002_32035)" stroke-width="1.05497" stroke-linecap="round"/>
<path d="M13.4662 3.9475C17.2526 2.05425 16.306 17.1998 18.1992 29.5055" stroke="#438218" stroke-width="0.946594" stroke-linecap="round"/>
<path fill-rule="evenodd" clip-rule="evenodd" d="M14.3697 11.313C14.3984 11.59 14.6674 11.8264 14.9707 11.8409C15.113 11.8477 15.2169 11.8837 15.3032 11.9362C15.3942 11.9915 15.4968 12.0846 15.6048 12.2412C15.8301 12.5678 16.0235 13.0888 16.1791 13.829C16.4535 15.1348 16.5735 16.9227 16.6971 19.0632C16.656 19.0221 16.6134 18.9823 16.5693 18.9441C16.1286 18.5616 15.591 18.3736 14.9863 18.3736C14.685 18.3736 14.4768 18.5985 14.5213 18.8759C14.5658 19.1533 14.8462 19.3782 15.1475 19.3782C15.4847 19.3782 15.7008 19.4727 15.8723 19.6216C16.0671 19.7906 16.2588 20.0779 16.4318 20.5349C16.637 21.0766 16.7852 21.7686 16.9112 22.5992C17.1921 26.6431 17.7143 31.3468 19.25 35.875C19.4227 36.3888 19.6114 36.9052 19.818 37.4228L19.8359 37.4839C19.9179 37.7635 20.211 37.9236 20.4905 37.8415C20.5041 37.8375 20.5174 37.8331 20.5304 37.8281C20.533 37.8276 20.5356 37.8271 20.5382 37.8265C20.7281 37.7867 20.8549 37.6541 20.8861 37.4898C20.9018 37.4085 20.894 37.3195 20.8589 37.23C20.8559 37.2156 20.8524 37.2012 20.8482 37.1869C19.3571 32.106 18.7972 26.886 18.7972 22.8746C18.7972 20.8678 18.9374 19.1795 19.1649 17.9718C19.2791 17.3656 19.4115 16.9013 19.5486 16.5843C19.6171 16.4259 19.6798 16.3208 19.7301 16.2569C19.7563 16.2235 19.7735 16.2085 19.78 16.2033C20.0453 16.0999 20.1816 15.8034 20.0848 15.5337C19.9865 15.2595 19.6844 15.117 19.4102 15.2153C19.1896 15.2945 19.0234 15.4488 18.9007 15.6049C18.7758 15.7638 18.6707 15.9565 18.5803 16.1655C18.3996 16.5834 18.2494 17.1327 18.1281 17.7766C18.0082 18.4131 17.9129 19.1625 17.8469 20.0037L17.8463 19.9935L17.8324 19.7487C17.6973 17.3734 17.5789 15.2924 17.2617 13.7831C17.0986 13.0068 16.8711 12.3174 16.5152 11.8012C16.3326 11.5364 16.1045 11.3 15.8176 11.1255C15.5258 10.9481 15.2044 10.8538 14.8668 10.8376C14.5636 10.8231 14.341 11.0359 14.3697 11.313Z" fill="url(#paint1_linear_1002_32035)"/>
<path d="M23.3276 9.26649C19.6633 10.0426 17.7185 12.3908 18.3147 15.2056C18.9109 18.0203 20.0522 18.0436 23.7165 17.2674C27.3807 16.4913 32.4034 12.6725 32.3183 12.2704C32.2331 11.8683 26.9918 8.49033 23.3276 9.26649Z" fill="url(#paint2_linear_1002_32035)"/>
<path d="M9.03664 18.1229C12.2127 16.1375 15.2427 16.4773 16.7678 18.9171C18.2929 21.3568 17.4876 22.1659 14.3115 24.1513C11.1355 26.1367 4.86931 26.8753 4.65144 26.5268C4.43357 26.1783 5.86055 20.1083 9.03664 18.1229Z" fill="url(#paint3_linear_1002_32035)"/>
<path d="M9.53032 9.87319C12.242 8.46842 14.6821 8.94372 15.7612 11.0267C16.8403 13.1097 16.1327 13.7144 13.421 15.1191C10.7094 16.5239 5.56832 16.7124 5.41416 16.4149C5.26001 16.1173 6.81864 11.278 9.53032 9.87319Z" fill="url(#paint4_linear_1002_32035)"/>
<path d="M6.77734 24.9046C8.28444 21.8904 11.2986 18.1227 15.8199 19.6297" stroke="url(#paint5_linear_1002_32035)" stroke-opacity="0.5" stroke-width="1.05497" stroke-linecap="round"/>
<path d="M29.6631 12.5785C26.4857 11.4554 21.7005 10.8364 19.4928 15.0601" stroke="url(#paint6_linear_1002_32035)" stroke-opacity="0.5" stroke-width="1.05497" stroke-linecap="round"/>
<path d="M21.8054 1.34353C18.9799 1.94201 17.4803 3.75269 17.94 5.92311C18.3998 8.09353 19.2798 8.11148 22.1053 7.51299C24.9308 6.9145 28.8037 3.9699 28.7381 3.65984C28.6724 3.34978 24.6309 0.745041 21.8054 1.34353Z" fill="url(#paint7_linear_1002_32035)"/>
<path d="M26.6902 3.89612C24.2401 3.03014 20.5503 2.5528 18.8479 5.80963" stroke="url(#paint8_linear_1002_32035)" stroke-opacity="0.5" stroke-width="1.05497" stroke-linecap="round"/>
<path d="M8.01154 14.6511C9.20854 12.3142 11.4559 9.45377 14.3625 10.9057" stroke="url(#paint9_linear_1002_32035)" stroke-opacity="0.5" stroke-width="1.05497" stroke-linecap="round"/>
<path d="M10.0976 1.63488C12.0241 0.636878 13.7577 0.974547 14.5243 2.45439C15.2909 3.93423 14.7882 4.36378 12.8617 5.36179C10.9353 6.35979 7.28288 6.49372 7.17336 6.28231C7.06384 6.07091 8.17115 2.63289 10.0976 1.63488Z" fill="url(#paint10_linear_1002_32035)"/>
<path d="M9.01746 5.0283C9.86785 3.36805 11.4644 1.33592 13.5294 2.36739" stroke="url(#paint11_linear_1002_32035)" stroke-opacity="0.5" stroke-width="0.749488" stroke-linecap="round"/>
</g>
<defs>
<filter id="filter0_d_1002_32035" x="0.213623" y="0" width="37.8638" height="47.3296" filterUnits="userSpaceOnUse" color-interpolation-filters="sRGB">
<feFlood flood-opacity="0" result="BackgroundImageFix"/>
<feColorMatrix in="SourceAlpha" type="matrix" values="0 0 0 0 0 0 0 0 0 0 0 0 0 0 0 0 0 0 127 0" result="hardAlpha"/>
<feOffset dy="3.78638"/>
<feGaussianBlur stdDeviation="1.89319"/>
<feComposite in2="hardAlpha" operator="out"/>
<feColorMatrix type="matrix" values="0 0 0 0 0 0 0 0 0 0 0 0 0 0 0 0 0 0 0.1 0"/>
<feBlend mode="normal" in2="BackgroundImageFix" result="effect1_dropShadow_1002_32035"/>
<feBlend mode="normal" in="SourceGraphic" in2="effect1_dropShadow_1002_32035" result="shape"/>
</filter>
<linearGradient id="paint0_linear_1002_32035" x1="20.1674" y1="14.1726" x2="17.2687" y2="14.3013" gradientUnits="userSpaceOnUse">
<stop stop-color="#72B544"/>
<stop offset="1" stop-color="#3C7A11"/>
</linearGradient>
<linearGradient id="paint1_linear_1002_32035" x1="20.6121" y1="10.9745" x2="15.8818" y2="11.2634" gradientUnits="userSpaceOnUse">
<stop stop-color="#54C705"/>
<stop offset="1" stop-color="#368400"/>
</linearGradient>
<linearGradient id="paint2_linear_1002_32035" x1="26.9897" y1="13.0629" x2="18.4273" y2="15.0405" gradientUnits="userSpaceOnUse">
<stop stop-color="#59CD09"/>
<stop offset="1" stop-color="#3D9202"/>
</linearGradient>
<linearGradient id="paint3_linear_1002_32035" x1="9.03664" y1="23.3977" x2="16.5721" y2="18.8764" gradientUnits="userSpaceOnUse">
<stop stop-color="#58CD08"/>
<stop offset="1" stop-color="#3A8D01"/>
</linearGradient>
<linearGradient id="paint4_linear_1002_32035" x1="9.18366" y1="14.1601" x2="15.6049" y2="10.9808" gradientUnits="userSpaceOnUse">
<stop stop-color="#58CD08"/>
<stop offset="1" stop-color="#3A8D01"/>
</linearGradient>
<linearGradient id="paint5_linear_1002_32035" x1="15.0664" y1="18.8762" x2="6.77734" y2="24.9046" gradientUnits="userSpaceOnUse">
<stop stop-color="white" stop-opacity="0"/>
<stop offset="0.525" stop-color="white" stop-opacity="0.5"/>
<stop offset="1" stop-color="white" stop-opacity="0"/>
</linearGradient>
<linearGradient id="paint6_linear_1002_32035" x1="19.512" y1="13.9946" x2="29.6631" y2="12.5785" gradientUnits="userSpaceOnUse">
<stop stop-color="white" stop-opacity="0"/>
<stop offset="0.525" stop-color="white" stop-opacity="0.5"/>
<stop offset="1" stop-color="white" stop-opacity="0"/>
</linearGradient>
<linearGradient id="paint7_linear_1002_32035" x1="24.6293" y1="4.27089" x2="18.0269" y2="5.79582" gradientUnits="userSpaceOnUse">
<stop stop-color="#59CD09"/>
<stop offset="1" stop-color="#3D9202"/>
</linearGradient>
<linearGradient id="paint8_linear_1002_32035" x1="18.8627" y1="4.98804" x2="26.6902" y2="3.8961" gradientUnits="userSpaceOnUse">
<stop stop-color="white" stop-opacity="0"/>
<stop offset="0.525" stop-color="white" stop-opacity="0.5"/>
<stop offset="1" stop-color="white" stop-opacity="0"/>
</linearGradient>
<linearGradient id="paint9_linear_1002_32035" x1="13.9106" y1="10.2607" x2="7.43083" y2="13.4835" gradientUnits="userSpaceOnUse">
<stop stop-color="white" stop-opacity="0"/>
<stop offset="0.525" stop-color="white" stop-opacity="0.5"/>
<stop offset="1" stop-color="white" stop-opacity="0"/>
</linearGradient>
<linearGradient id="paint10_linear_1002_32035" x1="9.85135" y1="4.68042" x2="14.4132" y2="2.42179" gradientUnits="userSpaceOnUse">
<stop stop-color="#58CD08"/>
<stop offset="1" stop-color="#3A8D01"/>
</linearGradient>
<linearGradient id="paint11_linear_1002_32035" x1="13.2084" y1="1.9092" x2="8.6049" y2="4.19877" gradientUnits="userSpaceOnUse">
<stop stop-color="white" stop-opacity="0"/>
<stop offset="0.525" stop-color="white" stop-opacity="0.5"/>
<stop offset="1" stop-color="white" stop-opacity="0"/>
</linearGradient>
<clipPath id="clip0_1002_32035">
<rect width="30.291" height="39.757" fill="white" transform="translate(4)"/>
</clipPath>
</defs>
</svg>
