<svg width="17" height="17" viewBox="0 0 17 17" fill="none" xmlns="http://www.w3.org/2000/svg">
<g id="refresh">
<path id="Vector" fill-rule="evenodd" clip-rule="evenodd" d="M3.70039 2.1001C3.91256 2.1001 4.11605 2.18438 4.26608 2.33441C4.41611 2.48444 4.50039 2.68792 4.50039 2.9001V4.5809C5.16602 3.90191 5.99354 3.40354 6.90499 3.13272C7.81644 2.8619 8.78182 2.82755 9.71022 3.0329C10.6386 3.23825 11.4995 3.67654 12.2117 4.3065C12.9239 4.93645 13.464 5.73733 13.7812 6.6337C13.8197 6.7335 13.8377 6.84001 13.8343 6.94693C13.8309 7.05384 13.8061 7.15899 13.7614 7.25615C13.7166 7.3533 13.6529 7.4405 13.5738 7.51258C13.4948 7.58467 13.4021 7.64016 13.3013 7.6758C13.2004 7.71143 13.0934 7.72648 12.9866 7.72005C12.8799 7.71362 12.7755 7.68584 12.6796 7.63835C12.5838 7.59087 12.4984 7.52464 12.4286 7.4436C12.3588 7.36255 12.306 7.26833 12.2732 7.1665C12.0317 6.48395 11.6096 5.87971 11.0517 5.41816C10.4939 4.95661 9.82133 4.65505 9.10564 4.5456C8.38995 4.43616 7.65798 4.52294 6.98772 4.79669C6.31746 5.07044 5.73403 5.52091 5.29959 6.1001H7.70039C7.91256 6.1001 8.11605 6.18438 8.26608 6.33441C8.41611 6.48444 8.50039 6.68792 8.50039 6.9001C8.50039 7.11227 8.41611 7.31575 8.26608 7.46578C8.11605 7.61581 7.91256 7.7001 7.70039 7.7001H3.70039C3.48822 7.7001 3.28473 7.61581 3.13471 7.46578C2.98468 7.31575 2.90039 7.11227 2.90039 6.9001V2.9001C2.90039 2.68792 2.98468 2.48444 3.13471 2.33441C3.28473 2.18438 3.48822 2.1001 3.70039 2.1001V2.1001ZM3.70679 9.3457C3.80586 9.31071 3.91085 9.29557 4.01577 9.30116C4.12069 9.30675 4.22348 9.33295 4.31827 9.37826C4.41306 9.42358 4.498 9.48712 4.56823 9.56527C4.63846 9.64341 4.69261 9.73462 4.72759 9.8337C4.96908 10.5162 5.39123 11.1205 5.94905 11.582C6.50686 12.0436 7.17945 12.3451 7.89514 12.4546C8.61083 12.564 9.3428 12.4773 10.0131 12.2035C10.6833 11.9298 11.2668 11.4793 11.7012 10.9001H9.30039C9.08822 10.9001 8.88473 10.8158 8.73471 10.6658C8.58468 10.5158 8.50039 10.3123 8.50039 10.1001C8.50039 9.88792 8.58468 9.68444 8.73471 9.53441C8.88473 9.38438 9.08822 9.3001 9.30039 9.3001H13.3004C13.5126 9.3001 13.716 9.38438 13.8661 9.53441C14.0161 9.68444 14.1004 9.88792 14.1004 10.1001V14.1001C14.1004 14.3123 14.0161 14.5158 13.8661 14.6658C13.716 14.8158 13.5126 14.9001 13.3004 14.9001C13.0882 14.9001 12.8847 14.8158 12.7347 14.6658C12.5847 14.5158 12.5004 14.3123 12.5004 14.1001V12.4193C11.8348 13.0983 11.0072 13.5967 10.0958 13.8675C9.18435 14.1383 8.21896 14.1726 7.29057 13.9673C6.36217 13.7619 5.50133 13.3237 4.78912 12.6937C4.07691 12.0637 3.53677 11.2629 3.21959 10.3665C3.1846 10.2674 3.16946 10.1624 3.17505 10.0575C3.18064 9.9526 3.20684 9.84981 3.25216 9.75502C3.29747 9.66023 3.36102 9.57529 3.43916 9.50506C3.5173 9.43483 3.60852 9.38068 3.70759 9.3457H3.70679Z" fill="white"/>
</g>
</svg>
