<svg width="23" height="31" viewBox="0 0 23 31" fill="none" xmlns="http://www.w3.org/2000/svg">
<g id="Group 12" filter="url(#filter0_d_1002_31825)">
<path id="Ellipse 13" d="M17.4221 9.15713C18.5807 13.4812 22.8501 26.0022 11.4124 24.7664C-0.025311 23.5306 6.15509 16.3126 4.99647 11.9886C3.83785 7.66455 4.55369 2.44067 9.38221 1.52137C14.2107 0.602075 16.2635 4.8331 17.4221 9.15713Z" fill="url(#paint0_linear_1002_31825)" stroke="url(#paint1_linear_1002_31825)" stroke-width="0.891442"/>
<path id="Ellipse 14" d="M16.6955 18.7819C16.6955 20.7028 16.5294 22.26 14.6085 22.26C12.6876 22.26 4.86965 22.2604 6.95653 18.7823C9.0434 15.3041 10.4346 11.8259 13.2172 11.1302C15.9998 10.4345 16.6955 16.8609 16.6955 18.7819Z" fill="url(#paint2_linear_1002_31825)"/>
<path id="Vector 12" d="M8.63605 4.17383C5.96647 5.84641 7.13707 10.5425 7.71599 12.8583" stroke="url(#paint3_linear_1002_31825)" stroke-width="1.33716" stroke-linecap="round"/>
<ellipse id="Ellipse 15" cx="10.1014" cy="3.54892" rx="1.71056" ry="0.695631" transform="rotate(-3.88222 10.1014 3.54892)" fill="url(#paint4_radial_1002_31825)"/>
</g>
<defs>
<filter id="filter0_d_1002_31825" x="-2.78253" y="0" width="26.7106" height="32.5653" filterUnits="userSpaceOnUse" color-interpolation-filters="sRGB">
<feFlood flood-opacity="0" result="BackgroundImageFix"/>
<feColorMatrix in="SourceAlpha" type="matrix" values="0 0 0 0 0 0 0 0 0 0 0 0 0 0 0 0 0 0 127 0" result="hardAlpha"/>
<feOffset dy="2.78253"/>
<feGaussianBlur stdDeviation="1.39126"/>
<feComposite in2="hardAlpha" operator="out"/>
<feColorMatrix type="matrix" values="0 0 0 0 0 0 0 0 0 0 0 0 0 0 0 0 0 0 0.1 0"/>
<feBlend mode="normal" in2="BackgroundImageFix" result="effect1_dropShadow_1002_31825"/>
<feBlend mode="normal" in="SourceGraphic" in2="effect1_dropShadow_1002_31825" result="shape"/>
</filter>
<linearGradient id="paint0_linear_1002_31825" x1="7.49336" y1="2.00778" x2="13.6521" y2="24.9923" gradientUnits="userSpaceOnUse">
<stop stop-color="#EE8F4A"/>
<stop offset="1" stop-color="#985211"/>
</linearGradient>
<linearGradient id="paint1_linear_1002_31825" x1="7.49336" y1="2.00778" x2="13.6521" y2="24.9923" gradientUnits="userSpaceOnUse">
<stop stop-color="#A3651C"/>
<stop offset="1" stop-color="#82531B"/>
</linearGradient>
<linearGradient id="paint2_linear_1002_31825" x1="11.1303" y1="14.6083" x2="14.6085" y2="22.2603" gradientUnits="userSpaceOnUse">
<stop stop-color="#775021" stop-opacity="0.2"/>
<stop offset="1" stop-color="#775021" stop-opacity="0.6"/>
</linearGradient>
<linearGradient id="paint3_linear_1002_31825" x1="7.88665" y1="4.17383" x2="7.88665" y2="12.8583" gradientUnits="userSpaceOnUse">
<stop stop-color="white" stop-opacity="0"/>
<stop offset="0.49" stop-color="white" stop-opacity="0.32"/>
<stop offset="1" stop-color="white" stop-opacity="0"/>
</linearGradient>
<radialGradient id="paint4_radial_1002_31825" cx="0" cy="0" r="1" gradientUnits="userSpaceOnUse" gradientTransform="translate(10.1014 3.54892) rotate(90) scale(0.695631 1.71056)">
<stop stop-color="white" stop-opacity="0.3"/>
<stop offset="1" stop-color="white" stop-opacity="0.1"/>
</radialGradient>
</defs>
</svg>
