<svg width="16" height="17" viewBox="0 0 16 17" fill="none" xmlns="http://www.w3.org/2000/svg">
<g id="switch-horizontal">
<path id="Vector" d="M6.40022 4.49992C6.18805 4.49992 5.98456 4.5842 5.83453 4.73423C5.68451 4.88426 5.60022 5.08774 5.60022 5.29992C5.60022 5.51209 5.68451 5.71557 5.83453 5.8656C5.98456 6.01563 6.18805 6.09992 6.40022 6.09992H10.869L9.83462 7.13432C9.68889 7.2852 9.60826 7.48728 9.61008 7.69704C9.6119 7.9068 9.69604 8.10745 9.84436 8.25577C9.99269 8.4041 10.1933 8.48823 10.4031 8.49006C10.6129 8.49188 10.8149 8.41124 10.9658 8.26552L13.3658 5.86552C13.5158 5.7155 13.6 5.51205 13.6 5.29992C13.6 5.08779 13.5158 4.88434 13.3658 4.73432L10.9658 2.33432C10.892 2.25791 10.8037 2.19696 10.7061 2.15504C10.6085 2.11311 10.5036 2.09104 10.3973 2.09012C10.2911 2.0892 10.1858 2.10944 10.0875 2.14966C9.98914 2.18989 9.89982 2.24929 9.8247 2.3244C9.74959 2.39952 9.69019 2.48884 9.64996 2.58716C9.60974 2.68547 9.5895 2.79082 9.59042 2.89704C9.59134 3.00326 9.61341 3.10824 9.65534 3.20584C9.69727 3.30345 9.75821 3.39172 9.83462 3.46552L10.869 4.49992H6.40022ZM9.60022 12.4999C9.81239 12.4999 10.0159 12.4156 10.1659 12.2656C10.3159 12.1156 10.4002 11.9121 10.4002 11.6999C10.4002 11.4877 10.3159 11.2843 10.1659 11.1342C10.0159 10.9842 9.81239 10.8999 9.60022 10.8999H5.13142L6.16582 9.86552C6.24223 9.79172 6.30317 9.70344 6.3451 9.60584C6.38703 9.50824 6.4091 9.40326 6.41002 9.29704C6.41094 9.19082 6.3907 9.08547 6.35048 8.98715C6.31025 8.88884 6.25085 8.79952 6.17574 8.7244C6.10062 8.64929 6.0113 8.58989 5.91298 8.54966C5.81467 8.50944 5.70932 8.48919 5.6031 8.49012C5.49688 8.49104 5.3919 8.51311 5.2943 8.55504C5.19669 8.59696 5.10842 8.65791 5.03462 8.73432L2.63462 11.1343C2.48464 11.2843 2.40039 11.4878 2.40039 11.6999C2.40039 11.912 2.48464 12.1155 2.63462 12.2655L5.03462 14.6655C5.1855 14.8112 5.38758 14.8919 5.59734 14.8901C5.8071 14.8882 6.00775 14.8041 6.15607 14.6558C6.3044 14.5074 6.38854 14.3068 6.39036 14.097C6.39218 13.8873 6.31155 13.6852 6.16582 13.5343L5.13142 12.4999H9.60022Z" fill="#10BCCA"/>
</g>
</svg>
