<svg width="40" height="40" viewBox="0 0 40 40" fill="none" xmlns="http://www.w3.org/2000/svg">
<path fill-rule="evenodd" clip-rule="evenodd" d="M35.999 20C35.999 24.2435 34.3133 28.3131 31.3127 31.3137C28.3122 34.3143 24.2425 36 19.999 36C15.7556 36 11.6859 34.3143 8.68532 31.3137C5.68473 28.3131 3.99902 24.2435 3.99902 20C3.99902 15.7565 5.68473 11.6869 8.68532 8.68629C11.6859 5.68571 15.7556 4 19.999 4C24.2425 4 28.3122 5.68571 31.3127 8.68629C34.3133 11.6869 35.999 15.7565 35.999 20ZM23.999 14C23.999 15.0609 23.5776 16.0783 22.8274 16.8284C22.0773 17.5786 21.0599 18 19.999 18C18.9382 18 17.9207 17.5786 17.1706 16.8284C16.4205 16.0783 15.999 15.0609 15.999 14C15.999 12.9391 16.4205 11.9217 17.1706 11.1716C17.9207 10.4214 18.9382 10 19.999 10C21.0599 10 22.0773 10.4214 22.8274 11.1716C23.5776 11.9217 23.999 12.9391 23.999 14ZM19.999 22C18.0842 21.9996 16.2096 22.549 14.5979 23.5828C12.9861 24.6166 11.7051 26.0915 10.907 27.832C12.0324 29.1412 13.4276 30.1915 14.9969 30.911C16.5663 31.6304 18.2726 32.0019 19.999 32C21.7254 32.0019 23.4318 31.6304 25.0011 30.911C26.5705 30.1915 27.9657 29.1412 29.091 27.832C28.2929 26.0915 27.0119 24.6166 25.4002 23.5828C23.7885 22.549 21.9138 21.9996 19.999 22Z" fill="#10BCCA"/>
</svg>
