<svg width="15" height="16" viewBox="0 0 15 16" fill="none" xmlns="http://www.w3.org/2000/svg">
<g id="Cycle=Gibosa-Creciente">
<path d="M0 7.91211C0 3.76997 3.35786 0.412109 7.5 0.412109C11.6421 0.412109 15 3.76997 15 7.91211C15 12.0542 11.6421 15.4121 7.5 15.4121C3.35786 15.4121 0 12.0542 0 7.91211Z" fill="#D1FBFC"/>
<path id="Subtract" fill-rule="evenodd" clip-rule="evenodd" d="M9 1.58604C6.1333 2.26321 4 4.83853 4 7.91211C4 10.9857 6.1333 13.561 9 14.2382C8.51848 14.3519 8.01627 14.4121 7.5 14.4121C3.91015 14.4121 1 11.502 1 7.91211C1 4.32226 3.91015 1.41211 7.5 1.41211C8.01627 1.41211 8.51848 1.4723 9 1.58604Z" fill="#10BCCA"/>
</g>
</svg>
