<svg width="15" height="16" viewBox="0 0 15 16" fill="none" xmlns="http://www.w3.org/2000/svg">
<g id="Cycle=Gibosa-Menguante">
<path d="M15 7.91211C15 12.0542 11.6421 15.4121 7.5 15.4121C3.35786 15.4121 2.93554e-07 12.0542 6.55671e-07 7.91211C1.01779e-06 3.76997 3.35787 0.412108 7.5 0.412109C11.6421 0.412109 15 3.76997 15 7.91211Z" fill="#D1FBFC"/>
<path id="Subtract" fill-rule="evenodd" clip-rule="evenodd" d="M6 14.2382C8.8667 13.561 11 10.9857 11 7.91211C11 4.83853 8.8667 2.26321 6 1.58604C6.48152 1.4723 6.98373 1.41211 7.5 1.41211C11.0899 1.41211 14 4.32226 14 7.91211C14 11.502 11.0899 14.4121 7.5 14.4121C6.98373 14.4121 6.48152 14.3519 6 14.2382Z" fill="#10BCCA"/>
</g>
</svg>
